<svg xmlns="http://www.w3.org/2000/svg" viewBox="0 0 991.53 860.14"><defs><style>.cls-1{fill:none;stroke:#fff;stroke-linecap:round;stroke-linejoin:round;stroke-width:2px;}</style></defs><g id="Слой_2" data-name="Слой 2"><g id="Слой_1-2" data-name="Слой 1"><path class="cls-1" d="M1,18.05c1.33,1.83,2.65,3.68,4,5.5,2.49,3.34,5.25,6.51,7.44,10,3,4.84,6.47,8.62,12.54,9.58,2.44.38,3.29,2.6,4.36,5.24A15.61,15.61,0,0,0,42,58c7.16.94,11.8,4.27,14.15,11.49,1.7,5.26,5.4,9.85,7.21,15.09,3.08,8.88,9.78,11.47,18.12,12.52,11.37,1.42,22.65,3.55,34,4.84,7.44.85,15,.82,22.49,1.09,10.5.38,21,.45,31.5,1,49.64,2.82,99.33,1.84,149,1.9,18.83,0,37.67-.58,56.5-.95,15-.29,30-.65,45-1l85-2q23-.52,46-1,43.5-1,87-2,18.75-.44,37.5-1,15.25-.44,30.5-1c16-.63,32-1.26,48-2,11.84-.56,23.67-1.25,35.5-2,8.84-.56,17.68-1.19,26.5-2,13.17-1.22,26.33-2.71,39.5-3.94,8.66-.81,17.37-1,26-2.11,10.54-1.32,21-3.29,31.52-4.89,1.62-.24,3.33,0,5,0,8.83-.48,11.06-7.58,14-14a132.54,132.54,0,0,1,6.11-12.43A8.21,8.21,0,0,1,943,50.18a17.38,17.38,0,0,0,12-8.61c3.15-5.18,7.75-9.28,9.83-15.4.72-2.11,5.62-2.83,8.65-4.1,1.79-.76,4.43-.81,5.36-2.12,4-5.66,7.49-11.68,11.66-18.36-2.32-.25-3.81-.84-5-.47C966.66,6.85,947.92,13,929,18.47c-21.8,6.25-43.53,12.82-66,16.64-13.56,2.32-27,5.6-40.53,7.84C811.4,44.78,800.18,45.84,789,47c-11,1.16-22,2.27-33,3-20.49,1.34-41,2.57-61.5,3.49-17.49.78-35,1-52.5,1.57-21,.63-42,1.36-63,2q-35.75,1.07-71.5,2c-28.17.72-56.33,1.61-84.5,2-46.5.56-93,1.19-139.5.86C261,61.68,238.5,59.41,216,58c-9.84-.6-19.69-1.08-29.49-2.06-10.37-1-20.68-2.6-31-3.93-7.83-1-15.7-1.77-23.49-3-15.2-2.5-30.5-4.62-45.47-8.11C64.89,35.84,43.49,29.76,22,24c-4.73-1.26-9.31-3.07-14-4.39-1.19-.33-2.65.26-4,.43"/><path class="cls-1" d="M964,26.05c-4.83,1.33-9.67,2.64-14.5,4C933,34.71,916.6,39.8,900,43.92c-14.52,3.6-29.25,6.4-44,9-13.27,2.38-26.64,4.22-40,6-11.3,1.54-22.64,2.83-34,4s-22.65,2.28-34,3q-36,2.25-72,4c-17.49.86-35,1.44-52.5,2-22.16.74-44.33,1.34-66.5,2-15.33.48-30.66,1.07-46,1.48q-31.5.85-63,1.51c-33,.7-66,1.57-99,1.92-17.66.18-35.34-.46-53-.94-18.84-.52-37.68-1-56.5-2-17.35-1-34.67-2.59-52-3.92C178.67,71.37,169.81,71,161,70c-9.53-1-19-2.61-28.51-3.93-9.67-1.34-19.42-2.24-29-4.1C87.28,58.8,71.15,55.12,55,51.52c-7.38-1.65-14.67-3.67-22-5.43a15,15,0,0,0-3.49,0"/><path class="cls-1" d="M295.5,187.05c6.5-1.17,13-2.31,19.5-3.51,6.17-1.13,12.32-2.41,18.51-3.45,2.49-.42,4.24.33,4.56,3.45.46,4.38,1.41,8.71,2.13,13,12,0,23.63,0,35.3,0,1.5,0,3-.44,4.5-.46,26.17-.36,52.33-.64,78.5-1,15.83-.24,31.67-.67,47.5-1,18-.35,36-.61,54-1,27.17-.62,54.33-1.36,81.5-1.94,3.29-.07,4.55-1.25,4.57-4.55a45.64,45.64,0,0,1,1.07-10c.28-1.2,2.26-3,3.35-2.88,7,.54,14,1.39,21,2.39,5.53.8,11,2.2,16.52,2.86,2.84.33,3.92,1.16,4,4.1.51,10.67,1.31,21.33,1.93,32,.71,12.16,1.34,24.33,2,36.5.33,6,.68,12,1,18,.67,13,1.31,26,2,39,.63,11.67,1.37,23.33,2,35,.72,13.83,1.29,27.67,2,41.5.59,11.17,1.39,22.33,2,33.5.75,14.66,1.28,29.34,2,44,.55,10.5,1.36,21,2,31.5.71,12.33,1.32,24.67,2,37,.63,11.33,1.33,22.67,2,34,.68,11.83,1.31,23.67,2,35.5.63,10.83,1.33,21.67,2,32.5.67,11.17,1.32,22.33,2,33.5.29,4.67.6,9.34,1,14,.27,3-1.21,4.14-4,4.54-7,1-8,2.54-7,9.46.55,4,.71,8,1,12"/><path class="cls-1" d="M116,102.55c1.33,9.5,2.59,19,4,28.49.62,4.11,3.19,6,7.46,6q52,.42,104,1c5.17.05,10.33,0,15.5,0a4.11,4.11,0,0,0,2-.5c10.33-6.5,21.55-6.32,33-4.5,2.82.45,5.73.42,8.49,1.07,6.15,1.47,7.68,4.34,6,10.45a11.4,11.4,0,0,0-.49,2.5c-.36,9.67-.67,19.33-1,29q-1,26.74-2,53.5c-.62,15.5-1.26,31-2,46.5-.93,19.33-2,38.67-3,58,0,.33,0,.67,0,1-.33,15.67-.47,31.34-1.05,47-.81,22-2,44-2.93,66-.45,10.66-.73,21.33-1,32-.38,14.5-.64,29-1,43.5-.26,9.5-.64,19-1,28.5q-1,26-2,52-1.51,40.25-3,80.5c-.06,1.59-.32,3.17-.49,4.75"/><path class="cls-1" d="M747,228.55a9.09,9.09,0,0,1,2-.48c14.5-.36,29-.77,43.5-1,24.33-.4,48.67-.67,73-1,7.26-.11,7.5-.41,7.5-7.49,0-9.5,0-19,0-28.5,0-3.67-1.89-5.21-5.48-5q-10.74.58-21.5,1c-17.33.69-34.67,1.26-52,2.07-4,.19-4-3-4.86-5.12a20.29,20.29,0,0,1-1.08-7.44c-.07-3.92-2.18-5.07-5.56-4.47-10.84,1.92-21.71,3.77-32.49,6-7.49,1.58-7.89,2.63-7,13.43.54,6.34,1.51,12.65,1.94,19,.81,12,1.22,24,2.09,36,.78,10.84,2,21.66,2.93,32.5.43,4.83.74,9.66,1,14.5.38,7,.52,14,1,21,.88,11.67,2,23.33,3,35,.41,5,.72,10,1,15,.37,6.66.5,13.35,1,20,.84,10.18,2,20.33,2.94,30.5.45,5,.74,10,1,15,.38,7.33.48,14.68,1.06,22,.82,10.51,2,21,2.93,31.5.44,4.82.72,9.66,1,14.5.69,11.17,1.21,22.34,2,33.5s2,22,3,33c.41,4.83.68,9.67,1,14.5q2,29.25,4,58.5.94,13.76,2,27.5c.29,4,1.08,8,.88,12-.22,4.37,2.21,5.52,5.61,6,6.5.89,7.33,1.93,7.55,8.52.12,3.81.74,7.62,1.19,12-10.2,1.06-19.7,2.58-29.24,2.91-17.16.59-34.33.47-51.5.6-2.83,0-3.66,1.48-3.51,4,.36,6,.68,12,1,18,0,.5,0,1,0,1.5.33,19,.56,38,1,57,.28,11.17,1,22.33,1.46,33.5"/><path class="cls-1" d="M243,238.55c-3.17.17-6.33.44-9.5.48-25.83.37-51.67.63-77.5,1.05-11,.17-22,.71-33,.94-6.22.13-7-.78-7-7q0-13.5,0-27c0-5.45,1.49-7,7-7,14.17,0,28.33.11,42.5-.05,10.5-.13,21-.57,31.5-1a3.82,3.82,0,0,0,2.89-1.95c.94-3.6,2-7.31,2-11,0-4.19,2.3-4.35,5.13-4,6.36.87,12.69,1.9,19,3,5.35.91,10.64,2.25,16,2.87,2.89.33,4.2,1.14,4,4.11q-1,15.75-2,31.5-.57,9.49-1,19c-.69,15.67-1.29,31.34-2,47-.58,12.34-1.29,24.67-2,37-.63,11.17-1.35,22.33-2,33.5-.7,12.16-1.32,24.33-2,36.5-.63,11-1.25,22-2,33-.92,13.17-2,26.33-3,39.5-.44,6.16-.76,12.33-1,18.5-.4,9.83-.48,19.68-1.07,29.5-.8,13.18-1.95,26.33-2.95,39.5,0,.5,0,1,0,1.5-.33,9.83-.57,19.67-1,29.5-.56,12-1.29,24-2,36q-1,16.76-2,33.5c-.62,9.83-1.32,19.67-2,29.5"/><path class="cls-1" d="M694,229.05q-32.75.49-65.5,1-26.25.44-52.5,1-49.75,1-99.5,2c-29.5.62-59,1.34-88.5,2-17.17.37-34.33.65-51.5,1-14.33.3-28.67.66-43,1"/><path class="cls-1" d="M743.5,179.05c-.5-.83-1.37-1.64-1.44-2.51-.45-5.49-.71-11-1.06-16.49-.66-10.17-1.15-20.35-2.19-30.48-.16-1.64-2.57-3.48-4.37-4.4a16.58,16.58,0,0,0-7.44-2c-12.72.13-25.74-1.83-37.58,5.27-1.78,1.08-4.59.58-6.92.61-28.67.36-57.34.55-86,1.06-27.84.49-55.67,1.28-83.5,2-11.67.29-23.33.81-35,.9-3.87,0-5.11,1.21-5.07,5.09.17,16.66.08,33.33.05,50,0,1.67-.31,3.33-.48,5"/><path class="cls-1" d="M196,823.55c-7.7,1.7-11.46,8.1-15.94,13.55a25.83,25.83,0,0,0-4,7c-2,5.17-.62,7.85,4.43,10a60.19,60.19,0,0,0,26.51,5c10.5-.47,21.07-.08,31.48-1.17A259.55,259.55,0,0,0,287,847.54c3.68-1.12,7.39-2.17,11-3.53,4.66-1.77,5.26-4.49,2-8-.49-.51-1-1-1.5-1.5C289.37,825.41,287,825,275,828a108.13,108.13,0,0,1-19,3c-8.13.5-16.33.36-24.49.06a111.82,111.82,0,0,1-32.05-5.79c-2.82-1-3.66-2.12-3.44-4.65,1-11.5,2-23,3-34.5.4-4.83.72-9.66,1-14.5.69-12,1.22-24,2-36,.63-9.18,1.63-18.33,2.46-27.5"/><path class="cls-1" d="M473,133.55c-6.17-.17-12.34-.55-18.5-.45-9.84.15-19.66.73-29.5.93-20.67.41-41.33.66-62,1-16.33.29-32.67.56-49,1-5.51.17-11,1-16.5,1.45"/><path class="cls-1" d="M877.5,86.55c-.5,5.33-.88,10.68-1.55,16-.42,3.37-1.48,6.65-1.91,10-.88,6.93-3.34,9.24-10.54,9.5q-12.75.48-25.5,1c-15,.65-30,1.37-45,2-17.17.71-34.33,1.34-51.5,2a15.52,15.52,0,0,0-2.5.48"/><path class="cls-1" d="M803,817.55c8.8,4.91,14.89,11.83,17.06,22,1,4.85.46,7.81-3.6,9.41a29.06,29.06,0,0,1-9.46,2c-8.16.27-16.36.48-24.49,0s-16-1.91-24-2.89c-5.66-.69-11.32-1.58-17-1.95A181.71,181.71,0,0,1,705,840a47.29,47.29,0,0,1-5-2,3.84,3.84,0,0,1-1.83-5.87c2.63-3.41,6.1-6.2,9.35-9.11s6.91-2,11-1.21c15.33,2.86,30.9,4.27,46.46,3,12.55-1,25.19-2.31,37-7.35"/><path class="cls-1" d="M285,710.55c.5-5.33,1.34-10.67,1.37-16,0-3-8.17-5.83-11.87-4.5a8.11,8.11,0,0,1-2.5,1c-11.5-.1-23,.1-34.49-.6a72.37,72.37,0,0,1-20.09-3.62c-6.72-2.37-12.23,2.88-12.46,10.27-.08,2.51-1,5-.8,7.49.1,1.24,1.74,3.25,2.86,3.37,8.63.92,17.3,1.71,26,2.08,12.66.55,25.33.78,38,1a85.74,85.74,0,0,0,10-.49c4.63-.46,5-.27,5,4.53s0,9.67,0,14.5c0,18,.12,36,0,54-.11,12.17-.65,24.33-.93,36.5a40.43,40.43,0,0,0,.47,5"/><path class="cls-1" d="M792.5,703.05q1.25,11.25,2.5,22.5c1,9,2,18,3,27,.46,4.49.71,9,1,13.5.69,10.17,1.24,20.34,2,30.5.45,5.68,1.34,11.33,1.92,17a15.22,15.22,0,0,1-.46,3.5"/><path class="cls-1" d="M779.5,681.05c-4.78,3.54-10.62,3.43-16,3.83-11.8.88-23.66,1-35.49,1.07-2.66,0-5.33-1.23-8-1.9"/><path class="cls-1" d="M509,133.55q.5,28.5,1,57a14.69,14.69,0,0,0,.48,2.5"/><path class="cls-1" d="M248.5,138.55c-.17,8.83-.25,17.67-.53,26.5-.17,5.5-.53,11-1,16.49a58.94,58.94,0,0,1-1.45,7"/><path class="cls-1" d="M689,130.05c.67,12.67,1.38,25.33,2,38,.18,3.83,0,7.67,0,11.5"/></g></g></svg>