<svg xmlns="http://www.w3.org/2000/svg" viewBox="0 0 906.12 1042.32"><defs><style>.cls-1{fill:none;stroke:#fff;stroke-linecap:round;stroke-linejoin:round;stroke-width:2px;}</style></defs><g id="Слой_2" data-name="Слой 2"><g id="Слой_1-2" data-name="Слой 1"><path class="cls-1" d="M336.67,653c17.7,19.55,41.28,28.61,65.46,36.43,25,8.08,50.92,12,76.92,14.91,22.07,2.47,44.26,4,66.42,5.58,25.3,1.86,50.61,3.43,75.93,5,19.8,1.24,39.61,2.5,59.44,3.47,26.8,1.32,53.61,2.29,80.42,3.56,23.79,1.14,47.5.47,70.9-4.16,8.17-1.62,16-4.87,24-7.34a22.76,22.76,0,0,1,3-.51"/><path class="cls-1" d="M843.68,730c-16.07,5.26-32.65,7.52-49.46,7.92-14.64.35-29.31.45-44,0-19.82-.64-39.63-1.92-59.44-2.91-13.49-.67-27-1.25-40.46-2-15.66-.9-31.3-2-47-3-11.82-.72-23.65-1.27-35.46-2q-22-1.4-44-3c-14.82-1.09-29.66-2.14-44.45-3.52-25.59-2.4-51-6-75.93-12.46-20.4-5.32-40.08-12.48-58.46-23a26.84,26.84,0,0,0-4-1.53"/><path class="cls-1" d="M815.2,481.63l-2.34,8.88,4.31,1.69c-2.33,2-4.14,4.54-6.51,5.26A149.68,149.68,0,0,1,790.71,502a178.13,178.13,0,0,1-23.46,2.49,526.47,526.47,0,0,1-69.43-3.38c-28.13-3.09-56.31-5.73-84.41-9.09-32.17-3.84-64.28-8.21-96.41-12.43-27.18-3.57-54-8.72-79.91-18-14.69-5.28-28.93-11.65-40.93-22-2.93-2.53-5.26-5.74-8.11-8.91l-2.93,1"/><path class="cls-1" d="M795.72,517.11c-5,.67-10,1.72-15,1.92-13.82.55-27.66,1.34-41.46.92-15.83-.49-31.68-1.78-47.45-3.41-43-4.45-86-8.94-128.87-14-28.87-3.42-57.7-7.36-86.4-12C448.77,486,422,477.84,397.13,464.12a9.34,9.34,0,0,1-1.74-1.7c-1.37.71-3.21,1.13-4.21,2.28C377,481,358.7,491.28,339.1,498.94c-27.25,10.66-55.07,19.85-83.86,25.6-6.57,1.31-13.31,1.71-20,2.59a11.71,11.71,0,0,0-2.51,1"/><path class="cls-1" d="M772.75,294.26c-7.5,1.49-14.94,3.86-22.49,4.31-15.45.94-31,1.5-46.44,1.05-36.75-1.07-73-7.43-109.38-12-27.56-3.46-55-7.89-82.42-12.45-19.93-3.32-39.79-7.31-58.94-13.95-17.48-6.07-34.93-12.35-49.47-24.43l-9.62-8c-1.15,1.72-2.31,3.34-3.36,5-3.85,6.15-7.83,12.23-11.44,18.52-2.31,4-6.67,4.36-10,6.5-12,7.64-24.16,14.91-37.51,19.9-11.31,4.23-22.82,7.53-35.11,2.84-2.1,8.21,8.53,5.17,8.92,10.81-4.38,2.05-6.4.9-6.76-4.11"/><path class="cls-1" d="M400.61,258.78c29.51,17.38,62,25.51,95.41,31,18.47,3,36.91,6.36,55.45,8.92,27.6,3.82,55.26,7.16,82.92,10.55,19,2.32,37.91,5,57,6.34,17.93,1.29,36,2.48,53.93-.34,4.19-.66,8.33-1.64,12.49-2.48"/><path class="cls-1" d="M406.6,632c1.18,4.69,2.35,9.39,3.4,13.58l283.9,18.59c5.6,2.35,11.36,5.27,17.43,7.22,19.41,6.22,38.67,13.28,58.51,17.65,13.4,2.95,27.82,4.79,41.37-1.58"/><path class="cls-1" d="M301.71,772.44q23-2.49,46-5c21.81-2.34,43.58-5.87,65.45-6.64,19.75-.69,39.61,1.67,59.43,2.63,11.82.57,23.64,1,35.46,1.51q33,1.49,65.94,3c11.49.52,23,.9,34.47,1.53,23.14,1.26,46.28,2.84,69.44,3.82,5.11.22,10.38-1.22,15.46-2.39q54.48-12.61,108.9-25.49c6.91-1.64,13.57-4.42,20.52-5.8,6-1.19,12.29-1.13,18.45-1.65.84-.08,1.67-.3,3.59-.66-.2-3.21-.4-6.52-.63-10.32,7.78-2.5,11.9-8.69,15.14-15.94,1.16-2.61,3.67-4.61,6.13-7.55h-6.25"/><path class="cls-1" d="M439.07,422.17l-5.92-9.9,223.71,25.46-5,9.43"/><path class="cls-1" d="M434.08,424.67c.15,1.33.3,2.67.51,4.49,7.6,1,15.27,2.09,23,3,10.81,1.26,21.65,2.3,32.46,3.54q36.48,4.19,72.93,8.48c19.65,2.31,39.29,4.72,58.95,7,10,1.14,20,2,30,3a7.63,7.63,0,0,1,2.49.52c19.35,9.42,39.86,15.64,60.5,21.28,10.63,2.9,21.7,4.88,32.91,3.14,3.68-.58,7.28-1.6,11.36-2.52-.59,3.68-1.09,6.82-1.65,10.29,16.64,2.61,32.49,4,48.23-.78,2.92-.88,5.68-2.29,8.51-3.46"/><path class="cls-1" d="M427.58,412.18l-4.21.7c1.21,2.18,2.12,4,3.24,5.78s2.3,3.11,3.86,5.19c13.8-2.16,28.13.81,42.58,2.75,17.27,2.31,34.63,4,51.94,6.09,20,2.41,40,5,59.94,7.48,21,2.64,42,5.35,62.94,7.94a70.39,70.39,0,0,0,8.16.05c-.3,2.86-.48,4.68-.67,6.49"/><path class="cls-1" d="M438.57,549.09c6.83.33,13.68.43,20.48,1,18.66,1.69,37.3,3.66,55.95,5.43,21.47,2,43,4,64.43,6,12.33,1.16,24.65,2.36,37,3.49,7.82.72,15.65,1.31,23.47,2.06.9.08,1.73.82,2.75,1.33V579.3l-5.24,1.4v39.84"/><path class="cls-1" d="M570.44,1038.27c.18,1.84,0,3.11-2.49,3-5.83-.15-11.67,0-16.81,0-9.28-18.1-18.17-35.55-27.16-53-8.27-16-16.64-32-25-48a60.23,60.23,0,0,0-3.57-6.45,4.17,4.17,0,0,0-2.92-1.49q-11.73-.42-23.48-.54-35.21-.32-70.43-.51-52.44-.3-104.9-.51c-5.5,0-11,0-15.95,0-15.82,17.35-31.19,34.12-46.47,51s-30.33,33.62-45.45,50.47c-2.05,2.29-4.28,3.68-7.52,3.52-6.15-.3-12.31-.37-18.48-.54"/><path class="cls-1" d="M465.05,206.31l34.46,4c2.67.31,5.42,1.27,8,.89,8.9-1.31,15.36,4.34,22.43,7.73,37.53,18,75.82,34.1,115.47,46.78,16.06,5.14,32.5,8.93,49.44,9.4,4.48.13,9-1.65,14.5-2.75-.17,2.09.1,4.41-.63,6.37-.94,2.52-.8,3.56,2.1,4.08,17.94,3.2,35.92,4.76,53.94.87,3.61-.78,7-2.58,10.5-3.91"/><path class="cls-1" d="M334.67,641.53a6.06,6.06,0,0,0-2.73,7.39c1.14,3-.22,4.47-1.22,6.62-8.71,18.63-24.15,29.47-42.5,37-15.92,6.49-32.63,10-49.46,13-10.94,1.93-21.95,3.56-33,5-19.22,2.53-38.07,1.47-55.9-7-2.38-1.14-4.27-3.31-7.27-5.71l5.75-1.71-2.6-10.32c17.85,10.63,35.92,9,54.55,7.37-.92-4.58-1.72-8.56-2.51-12.54"/><path class="cls-1" d="M390.62,422.67c10.32-4.33,20.76-8.42,30.93-13.08,6.54-3,12.69-4.52,20.08-2.64,6.88,1.75,14.27,1.46,21.42,2.26,9.5,1.06,19,2.38,28.47,3.45,11.15,1.25,22.33,2.22,33.46,3.55,12.68,1.52,25.31,3.39,38,4.93,7.13.86,14.32,1.26,21.47,2.06,7.84.88,15.64,2,23.48,2.95,9.15,1.07,18.3,2.18,27.47,3,8.31.72,16.65,1.07,25,1.52a15,15,0,0,0,3-.47"/><path class="cls-1" d="M549,1039.77c-6.49-1.17-13-2.38-19.48-3.47a49.87,49.87,0,0,0-8.49-1q-45.45.14-90.91.48c-25.47.22-50.95,1.08-76.42.82-16.66-.18-33.31-1.83-50-2.85-16.15-1-32.29-2.73-48.45-2.79-17-.07-34,1.5-50.95,2.28-6.15.28-12.32.35-18.48.51"/><path class="cls-1" d="M367.64,457.65c-6.22,7.34-14.17,12.43-22.48,17-25,13.69-52.27,21.54-79.44,29.42-12.5,3.62-25.3,6.63-38.43,5.43-8.06-.73-16-2.85-24-4.35"/><path class="cls-1" d="M348.66,698.49l-7.17-1.23c-.27-4.43-.53-8.61-.86-14-3.74,3.28-6.51,5.89-9.47,8.26-16.46,13.19-35.82,20.1-56,24.91a478.2,478.2,0,0,1-72.42,12c-9.44.78-19,.46-28.46.59-4.33.06-8.66,0-14.14,0,.21-3.54.38-6.52.59-9.94-5.77-3.23-10.43-7.77-11.42-15"/><path class="cls-1" d="M475.54,854.89a19.47,19.47,0,0,0,.47-3q0-26,0-52a11.82,11.82,0,0,0-.42-2l-48-1.72c-2.63,19.3-1.08,38.51-1.5,57.66"/><path class="cls-1" d="M547,805.92v95.69h28.72V806.29L548,805.42"/><path class="cls-1" d="M654.86,858.89V804.2l-47-1.56c0,10.94.06,21.1,0,31.26-.07,8-.32,16-.48,24"/><path class="cls-1" d="M579.93,802.92a14.51,14.51,0,0,0-3.49-.95c-16-.4-32-.66-48-1.07-5.33-.14-10.65-.6-17-1V917.35"/><path class="cls-1" d="M523,987.3c-3.5.17-7,.48-10.49.48-29.14,0-58.28.15-87.41,0-21.15-.12-42.3-.61-63.44-1-19.82-.32-39.63-.52-59.44-1-17.32-.45-34.64-1.29-51.95-1.92-.47,0-.95.41-2,.9v45"/><path class="cls-1" d="M594.42,400.19c.17-4,.42-8,.48-12,.08-5.83,0-11.66,0-18-8.44-1-16.46-2-24.47-3-8.67-1.12-17.31-2.4-26-3.47-12.65-1.57-25.32-2.93-38-4.54-10.84-1.38-21.61-3.36-32.48-4.36-9.71-.89-19-4.36-29-3.85-6.64.34-12.06,3.48-17.9,5.44-16.18,5.41-32,11.79-48,17.78"/><path class="cls-1" d="M404.11,281.26c-3,4.5-1.4,9,.13,13.53,3-4.06,1.88-8.59,1.35-13a59.64,59.64,0,0,1-.92-6c-.05-2.56-.43-4.53-3.81-4V258.85c-3.47,3.73-6.16,6.53-8.73,9.43-14.94,16.83-33.55,28.59-53.48,38.43-18.49,9.14-37,18.38-57.43,22.47a132.05,132.05,0,0,1-15.48,2c-2.24.18-3.94.21-3.5,3.08"/><path class="cls-1" d="M811.21,498.12c-2.45,7-6.79,12.11-14.43,14.46l-.79,10c-5.21.8-10.87,1.15-16.22,2.61-8.94,2.42-17.63,5.73-26.51,8.35-24.12,7.09-48.28,14-72.43,21-12.81,3.7-25.64,7.32-38.45,11-.74.21-1.34,1-2,1.46"/><path class="cls-1" d="M373.64,257.78C369,265,361.9,269.44,355.15,274.26a254,254,0,0,1-77.45,37.39c-11.78,3.41-23.88,4.55-35.95.65-1.21-.39-2.65-.06-4-.06"/><path class="cls-1" d="M231.77,528.6c1.84.5,3.65,1.07,5.5,1.49,26.14,6,52.27,12.07,78.43,18,12.45,2.81,25,5.31,36.93,8.68a72.43,72.43,0,0,1,6.46,5.9c1.54,1.76,2.53,4,4.05,6.52l-6.49,3.49v8.7l5,1.38v34.32"/><path class="cls-1" d="M361.15,854.39a10.55,10.55,0,0,0,1-3c.07-15.82,0-31.64,0-47.47a15.52,15.52,0,0,0-.5-2.34l-26.46,2.31v72.49"/><path class="cls-1" d="M778.24,288.76c-4.32,4.6-6.86,10.45-10.64,15.37-2.1,2.73-5.72,4.29-9.09,6.68v9c-3.21.31-6.22.85-9.24.85-9.72,0-17.06,6.2-25.46,9.59-22.36,9-44.59,18.41-67,27.38-13.55,5.44-27.27,10.43-41,15.5a50.26,50.26,0,0,1-7,1.54"/><path class="cls-1" d="M638.38,920.85a82.43,82.43,0,0,1,9.49-1q32.46.36,64.93,1c12.49.23,25,.76,37.47.94,11.15.17,22.31,0,34,0V936l-136.69-1.43L637.37,920.6H621.16c-.6,3-1.17,5.91-1.82,9.24H616.4q-47.21,0-94.41,0c-3.16,0-6.33.32-9.49.48"/><path class="cls-1" d="M777.74,937.34c.81,15.17,1.63,30.34,2.48,46.3l45.73,3c.57,16,1.14,31.79,1.71,47.62-10.29,0-20.11,0-29.94,0q-36,.21-71.93.54c-1.74,0-4.56-1.25-4.6,2.45a5,5,0,0,1-2.39.47c-7.66-.45-15.32-1-23-1.48-1.5-.1-3-.47-4.49-.46q-28.23.2-56.45.48c-12.32.13-24.64.37-37,.48-9.33.08-18.66,0-28.72,0-20.34-37.58-41.27-76.25-62.19-114.92"/><path class="cls-1" d="M231.28,923.35c3.82-.17,7.65-.42,11.48-.48,5-.09,10,0,15,0,4.53,0,9.39.65,11-5.09a50.45,50.45,0,0,1,6-.87c17.65-.38,35.3-.89,52.95-1,30.14-.16,60.28-.31,90.41,0,25.81.29,51.62,1.39,77.43,1.87,15,.28,30-.07,45,.08,23,.22,46,.64,68.94,1,1.68,0,3.36,0,5.49,0,0-13.15,0-25.82.05-38.48a27.56,27.56,0,0,1,.94-5.29l12-.7"/><path class="cls-1" d="M299.71,292.76c-21.88,8-43.89,12.4-67.28,2.06.56,2.05.86,3.52,1.37,4.92s1.15,2.59,1.89,4.2l-3.92.85c0,.63-.27,1.67,0,1.9,7.43,5.44,8.56,17,18.69,19v9.39c1.2.24,2.28.77,3.23.6,8.5-1.58,16.42.66,24.52,2.95,21.06,5.95,42.25,11.46,63.41,17.07,9.13,2.42,18.31,4.68,27.89,7.12-.13,5.26,4.12,6.42,9.07,7.81v33.55"/><path class="cls-1" d="M701.32,1036.77l-9.91-15.85c-4.75-.23-8.91-.62-13.07-.61q-42.71.16-85.42.51c-10.32.1-20.64.63-31,1"/><path class="cls-1" d="M689.33,1035.27v-16.85l-10.25-14.13H662.85c-14.82,0-29.63-.06-44.45,0q-31,.16-61.94.5a28,28,0,0,0-3.5.48"/><path class="cls-1" d="M634.38,943.33q-54.45-.24-108.89-.47c-1.83,0-3.67.31-5.5.47"/><path class="cls-1" d="M580.93,803.92a25.94,25.94,0,0,1,1,5q.09,47.48,0,94.94v14"/><path class="cls-1" d="M321.69,663.52c-16.76.6-31.73,8-47.45,12.5-17.18,5-34.53,9-52.45,10-8.08.48-15.59-1.66-23-4.52"/><path class="cls-1" d="M653.86,987.8v-15H640.38q-49.46,0-98.91,0c-1.83,0-3.66.31-5.49.47"/><path class="cls-1" d="M366.14,784.44c.47,23.82.93,47.63,1.4,72,3.77-.19,7.43-.33,11.09-.55,8-.47,16-1.18,24-1.43s16-.17,24,0c15.16.26,30.31.63,45.46,1,5,.12,10,.39,15,.46,2,0,4-.29,7.14-.56,2.54,1.71,4.64,4.6,3.41,9.86-2.17.24-4.36.6-6.56.7-3.47.15-4.84,1.6-3.5,5"/><path class="cls-1" d="M544.47,988.3H667.35v15.49"/><path class="cls-1" d="M206.8,931.34c-6.16,6.16-12.18,12.48-18.51,18.46-18.24,17.24-36.61,34.33-54.92,51.5-6.18,5.8-12.29,11.69-18.5,17.46a6.48,6.48,0,0,1-4.47,2H1"/><path class="cls-1" d="M185.32,731c11,3,21.93,6.2,33,8.95,23.27,5.8,46.61,11.38,69.92,17,4,1,8,1.79,12.74,2.86V781l-6.26,1.55c.3,5-1.61,11,5.51,13.37"/><path class="cls-1" d="M645.87,971.81c-.2-4.49-.39-9-.61-13.89-3-.16-7.2-.56-11.38-.57q-51.69-.08-103.4,0a13.64,13.64,0,0,0-2.49.47"/><path class="cls-1" d="M348.66,876.88c-10.49.33-21,.71-31.47,1-25.81.69-51.62,1.24-77.42,2-14,.43-28,1.32-42,1.93-3.67.16-7.34,0-11.65,0,.36,2.4.63,4.22.93,6.24l30.2-1.39v7.15"/><path class="cls-1" d="M790.23,985.81c-1.67.16-3.33.47-5,.47q-46.46,0-92.91.05c-1.83,0-3.66.31-5.49.48"/><path class="cls-1" d="M296.71,792.43c10.16-1.5,20.31-3.06,30.47-4.47,6.82-1,13.65-1.74,20.48-2.51,13.65-1.54,27.3-3.1,41-4.48,8.48-.85,17-2.06,25.47-1.89,21.32.42,42.63,1.52,63.94,2.36,12.49.49,25,.95,37.47,1.51,21.48,1,43,2,64.43,3,8,.37,16,.64,24,1,21,1,42,2,62.94,3,4.49.2,9,0,13.49,0"/><path class="cls-1" d="M368.14,891.87q30,.5,59.94,1,26,.46,51.95,1c1.17,0,2.34,0,3.75,0V886l-46.21-1.15"/><path class="cls-1" d="M541,806.42a18.65,18.65,0,0,0-4-.95c-7-.1-14-.05-21.23-.05v95.69h25.72c0-28.56,0-57.38,0-86.19,0-4.33.62-8.66,1-13"/><path class="cls-1" d="M300.71,791.93c.16,4.5.46,9,.47,13.49.06,15,0,30,0,45v9.24l-6.75,1.16v6.88l5.75,1v9.22"/><path class="cls-1" d="M438.07,606.05V548.62c-5.94,1.43-11.25,2.54-16.47,4-18.34,5.09-36.64,10.31-55,15.43a27.74,27.74,0,0,1-4,.53"/><path class="cls-1" d="M553.46,395.19v-19.7l-49-6.33v20"/><path class="cls-1" d="M338.67,466.14c-18.33,7.63-36.76,15-56.45,18.48-10,1.77-19.88,2.14-29.47-2"/><path class="cls-1" d="M362.15,582.57c4.66-.83,9.38-1.44,14-2.55q13.54-3.25,27-7c10.36-2.86,20.58-6.24,31-8.81,3.77-.93,8-.48,11.95-.09,11.51,1.16,23,2.62,34.47,3.93,10.49,1.19,21,2.52,31.48,3.46,11.63,1,23.31,1.63,35,2.57,13.32,1.07,26.64,2.33,40,3.46,10.15.87,20.31,1.67,30.47,2.52,1.52.13,3,.41,5,.69v38.77"/><path class="cls-1" d="M631.88,882.87c18,.34,36,.64,54,1q19.74.42,39.46,1c8.16.24,16.32.68,24.48,1,1.83.06,3.67-.15,4.75-.2,1.36-4.06,2.56-7.63,3.78-11.29,2.84-1.88,7.74,1.91,9.37-3,1.28-3.86-2.25-5.67-4.41-8-6.2,4.27-6.35,4.64-4,10"/><path class="cls-1" d="M828.19,1020.78h76.93"/><path class="cls-1" d="M368.14,876.88c8.16.33,16.32.84,24.48,1,26.64.42,53.28.68,79.92,1.06,3.66.05,7.32.43,11.16.67,1.08-3-1.45-8,4.32-8.17,3.34-.11,6.68,0,11.24,0-1.21-2.43-2-4-2.74-5.5"/><path class="cls-1" d="M421.59,779.94q-.25,37-.5,73.95"/><path class="cls-1" d="M406.6,779.94v96.94"/><path class="cls-1" d="M482,782.94c-.33,12.82-.84,25.65-.95,38.47-.09,11.16.28,22.32.45,33.48"/><path class="cls-1" d="M597.92,787.43V866c5,3.73,11,1.55,16.5,2.16,8.08.88,16.3.52,24.46.68,8.66.17,17.31.3,26,.53a25.54,25.54,0,0,1,4.12.8c.3,4.33.59,8.5.88,12.66"/><path class="cls-1" d="M496,783.44q0,33,0,65.95a26.54,26.54,0,0,1-1,5"/><path class="cls-1" d="M659.36,789.93q.24,33.48.48,67a9.23,9.23,0,0,1-.48,2"/><path class="cls-1" d="M328.18,803.92l-16,1.11c0,8.21-.07,16.05,0,23.88.1,9.83.32,19.65.49,29.48"/><path class="cls-1" d="M415.1,617.55c7.16.33,14.32.57,21.47,1,5.17.33,10.32,1.06,15.49,1.45,14.15,1.05,28.31,2,42.46,3,21.65,1.63,43.28,3.4,64.94,5,20,1.44,40,2.63,59.93,4,15.16,1.07,30.31,2.33,45.46,3.48,7.15.54,14.29,1.05,22.47,1.66l-1.56-6.84L672.84,634"/><path class="cls-1" d="M340.17,647.53c5,2.16,9.89,4.63,15,6.41a63.18,63.18,0,0,0,16.95,3.27,55.52,55.52,0,0,0,32.48-7.68c1.8-1,3.66-2,5.49-3"/><path class="cls-1" d="M673.84,790.93v68"/><path class="cls-1" d="M812.71,685.5c-.91,4.11-1.82,8.23-2.79,12.57,18,1.28,35.39,4.1,52.83-4.25q-1.29,4.33-2.59,8.67"/><path class="cls-1" d="M636.38,627c-14.65-1.17-29.3-2.4-44-3.48-12.65-.93-25.31-1.64-38-2.54-5.34-.38-10.65-1.07-16-1.45-8-.59-16-1-24-1.51a19.88,19.88,0,0,0-2.5.19V624"/><path class="cls-1" d="M345.66,632.54,344,627.9l-25.6,6.49c.13,1.49.25,2.81.42,4.73,4.64-.87,9.32-1.52,13.89-2.63,15.34-3.73,30.64-7.61,46-11.46,1.68-.42,3.33-1,5-1.49"/><path class="cls-1" d="M652.36,414.18,505,395.1v8.08"/><path class="cls-1" d="M251.76,481.63c.57,3.12,1.25,6,5,7.1,1.85.57,3.36,2.23,5.19,3.52-1.3,1.08-1.5,1.38-1.66,1.35-7.81-1.05-15.24,1.89-23,2.16-13.43.47-26.5-.08-38.4-7.49l-1,.64c.92,2.75,1.84,5.51,2.82,8.46l-4.49,1.83c4.27,3.11,6.41,7.45,9.23,11.3s7,6.91,11.08,10.72v8.53l14.24-.65"/><path class="cls-1" d="M501,630.54c-8-.67-16-1.38-24-2q-11.22-.84-22.47-1.48a24.82,24.82,0,0,0-4,.43v5.14c10.15.8,20.31,1.68,30.47,2.37,13.32.92,26.64,1.69,40,2.52,8.16.51,16.33.92,24.48,1.54,3.34.26,6.65,1.25,10,1.39,3.82.15,7.66-.47,11.49-.38,5.83.14,11.66.56,17.48,1,3,.21,6,.89,9,.93,9.32.13,18.64,0,28.22,0v-3.19a18.13,18.13,0,0,0-3.24-.78c-13.82-.88-27.64-1.67-41.46-2.53q-19.23-1.2-38.46-2.51c-8.5-.59-17-1.36-25.48-2-3.82-.27-7.66-.35-11.49-.51"/><path class="cls-1" d="M329.18,788.93v88"/><path class="cls-1" d="M354.16,931.84v52.47"/><path class="cls-1" d="M316.69,628.54c10.16-2.17,20.36-4.14,30.46-6.55,11.71-2.78,23.33-5.92,35-9,7.15-1.86,14.27-3.82,20.65-5.53l5.8-8.76,8.63,5.91-.65,1.89c7,0,14-.26,21,.07,7.51.36,15,1.31,22.48,1.92,12.65,1,25.31,2,38,3,14.82,1.17,29.63,2.48,44.46,3.45,11.31.74,22.66.86,34,1.6,11.68.76,23.31,2,35,2.93,13.31,1.06,26.64,2,40,3,10.33.8,20.65,1.68,31,2.47,2,.15,4,0,6,0"/><path class="cls-1" d="M649.37,935.84c4.83,7,9.54,14.07,14.5,21q26.65,37,53.45,74a58.34,58.34,0,0,0,4,4.51"/><path class="cls-1" d="M384.13,432.17c-12.33,4.16-24.66,8.27-37,12.51-4.88,1.68-9.67,3.64-14.49,5.47"/><path class="cls-1" d="M754.76,898.86v-7l-37.63-1.32-.83,8.32"/><path class="cls-1" d="M495,936.34c-.17,7.49-.42,15-.48,22.48-.09,9.5,0,19,0,28.48"/><path class="cls-1" d="M289.22,931.84v50.47"/><path class="cls-1" d="M208.3,981.31c-5.83-.5-11.65-1.08-17.49-1.48-6.48-.45-13-.73-20-1.12v9.94l-4,2.15"/><path class="cls-1" d="M511.5,618.05c-10.16-.84-20.3-1.77-30.47-2.48-13.48-.93-27-1.69-40.46-2.51-1-.07-2,0-3.62,0,.26,2,.44,3.52.62,5"/><path class="cls-1" d="M602.41,868.88v49.47"/><path class="cls-1" d="M428.08,406.18c-.16-4.33-.62-8.67-.41-13,.19-3.72.23-7.17-3.53-10.32l6.28-3.81-.74-1.17c1.3.43,3,.5,3.83,1.37,2.55,2.61,5.76,3,9.06,3.43q25,3,49.95,6c24,2.85,48,5.6,71.93,8.52,19.66,2.4,39.3,5,58.94,7.48,10.33,1.31,20.63,2.81,31,3.83,1.55.15,3.31-1.84,5-2.84"/><path class="cls-1" d="M347.66,987.8v48"/><path class="cls-1" d="M662.85,405.68l-6-2.25,4.91-4.92c.83,1.64,1.94,2.87,2,4.18.36,5.45.25,5.46,5.35,7.85l-4.77,4v15.43l7.25,1.79v6l-14.74.43"/><path class="cls-1" d="M405.11,648c-3.5.16-7,.05-10.49.55-11.67,1.69-23.31,3.61-35,5.44"/><path class="cls-1" d="M499.51,871.88c.5,1.67,1.42,3.33,1.43,5,.13,11.66.05,23.31.09,35,0,1.67.31,3.34.48,5"/><path class="cls-1" d="M524,990.3c-.17,8-.45,16-.46,24,0,6.83.29,13.65.46,20.48"/><path class="cls-1" d="M682.33,630l-44-3"/><path class="cls-1" d="M711.81,898.86v-8c-12-.36-23.47-.73-35-1q-21.74-.55-43.46-1a4.94,4.94,0,0,0-1.5.48"/><path class="cls-1" d="M674.84,913.35v-7h79.67v8H631.88"/><path class="cls-1" d="M406.6,900.86c-.16,2.83-.32,5.66-.5,8.88a47.89,47.89,0,0,0,5,.59q33,.3,65.94.5c2.16,0,4.32-.31,6.49-.48"/><path class="cls-1" d="M766.75,873.88c2.92,4.39,4.81,8.91,4.61,14.49-.39,11-.11,22-.11,33"/><path class="cls-1" d="M189.82,875.38h-11c-.17,1.63-.48,3.31-.49,5,0,10.5,0,21,0,31.48,0,1.67-.31,3.34-.47,5"/><path class="cls-1" d="M466.55,199.82c13.48,1.66,27,3,40.41,5.27,2.69.46,8.62-.61,8,5.72"/><path class="cls-1" d="M452.56,566.08c-.17,4.83-.44,9.66-.48,14.49-.08,8.83,0,17.65,0,26.48"/><path class="cls-1" d="M425.09,385.2c-15.32,6.33-30.66,12.62-45.95,19-11,4.59-22,9.24-32.95,14a67.38,67.38,0,0,0-7.52,4.44"/><path class="cls-1" d="M435.08,892.37v-7.5h-29v7"/><path class="cls-1" d="M427.08,391.69c-4.33,1.33-8.77,2.37-13,4.05q-34.53,13.83-68.94,28c-1.84.76-3.4,2.21-5,3.28v14.16"/><path class="cls-1" d="M379.63,425.67c-6.16,2.83-12.22,5.92-18.51,8.44-9.73,3.89-19.63,7.34-29.43,11.09a30.36,30.36,0,0,0-4.5,2.66l.32,1.26,4.17,1.54c3.47,7.93,6.4,9.86,15,6,9.94-4.45,20-8.7,30-13a4.12,4.12,0,0,1,1.49,0"/><path class="cls-1" d="M512,572.08v40"/><path class="cls-1" d="M368.14,882.87l33,1.38v7.62"/><path class="cls-1" d="M501,571.08c0,11.65,0,23.31,0,35,0,1.67-.31,3.33-.48,5"/><path class="cls-1" d="M565.45,576.07c-.17,5.17-.43,10.33-.48,15.49-.08,8.16,0,16.33,0,24.49"/><path class="cls-1" d="M466.05,186.83c-.5,6.16-.63,12.39-1.71,18.45-.37,2.06-3,3.77-4.8,5.52-9.44,9.41-20.3,16.66-33,20.93-3.06,1-6.38,1.28-9.47-.43"/><path class="cls-1" d="M454.56,361.71c5.16.83,10.32,1.68,15.48,2.5,6.33,1,12.65,2.05,19,3,5.15.75,10.32,1.35,15.48,2"/><path class="cls-1" d="M575.94,577.57v38.48"/><path class="cls-1" d="M504.51,395.19c-13.32-1.83-26.63-3.78-40-5.45-6.29-.78-12.65-1.05-19-1.55"/><path class="cls-1" d="M699.32,899.36c-9.66-.33-19.31-.77-29-1-12.82-.27-25.65-.36-38.47-.53"/><path class="cls-1" d="M702.32,899.86q26.46-.24,52.94-.48a9,9,0,0,1,2,.48"/><path class="cls-1" d="M137.87,1014.79c4.82.66,9.64,1.52,14.49,2,6.14.53,12.32.68,18.47,1.08a28,28,0,0,1,4.33,1l7.66-9.58"/><path class="cls-1" d="M631.88,904.36c5.83.17,11.66.41,17.49.48,7.49.08,15,0,22.47.06a7.72,7.72,0,0,1,2.5,1"/><path class="cls-1" d="M479.53,14.94c4.06-4,4.52-7.37,2.06-11-2.22-3.31-4.65-3.5-8.08-2-3.63,1.54-4.45,4.4-3.85,7.55S472.08,15.21,476,15c1-.07,2,0,3,0"/><path class="cls-1" d="M391.12,428.67l-5.07-8.29c-1,3.27-2.77,5.83-2.22,7.73,1.5,5.21-1.19,9-3.26,13a80.9,80.9,0,0,1-6,9.5c-2.65,3.74-6.1,5.62-10.88,6.81-8.17,2-15.89,5.83-24.68,9.24l.63-7.53"/><path class="cls-1" d="M485,916.85c-.62-5.15-1.24-10.29-1.9-15.74H437.07v8.25"/><path class="cls-1" d="M507.51,204.31V191.24c-5.77-1-11.62-2-17.49-2.88-5.64-.81-11.45-.83-16.94-2.19-4.92-1.22-8.87.3-13,2.13a27.29,27.29,0,0,1-3.48,1"/><path class="cls-1" d="M436.57,900.86q-31.71-.5-63.43-1c-1.67,0-3.33-.31-5-.48"/><path class="cls-1" d="M248.26,893.87v-7H217.79"/><path class="cls-1" d="M405.6,909.86c-11.15.16-22.31.36-33.46.45a17.09,17.09,0,0,1-4-.95"/><path class="cls-1" d="M379.13,580.07c0,9.33,0,18.65,0,28,0,1.67.31,3.33.48,5"/><path class="cls-1" d="M424.09,417.18c-9.49,3.49-19,7-28.47,10.51-1.88.7-3.67,1.64-5.5,2.48"/><path class="cls-1" d="M384.63,578.57c.16,9,.31,18,.51,27,0,1.84.32,3.67.48,5.5"/><path class="cls-1" d="M606.91,415.18c-8.33-1-16.65-2.06-25-3-6.82-.76-13.65-1.35-20.48-2"/><path class="cls-1" d="M560.45,396.19V376.54l33.47,4.16"/><path class="cls-1" d="M219.79,918.35l-10.67,11.74h-40V918.17c19.69-1.41,39.7-.56,59.69-.82"/><path class="cls-1" d="M553,408.68c-11.32-1.16-22.65-2.29-34-3.51-15.16-1.62-30.31-3.32-45.46-5"/><path class="cls-1" d="M173.83,930.84c-.17,5.66-.52,11.33-.44,17,.06,4.83.61,9.66.94,14.49"/><path class="cls-1" d="M349.16,882.37q-14.73.51-29.47,1c-6.16.19-12.32.3-18.48.51q-13,.45-26,1c-7.17.29-14.34.64-22.48,1v8"/><path class="cls-1" d="M445.07,351.72V382.2"/><path class="cls-1" d="M103.9,1029.28c5.83.16,11.78,1.16,17.45.31,9.85-1.47,19.37.27,29,1.19,3.69.36,7.37.78,12.39,1.31l11.09-12.81"/><path class="cls-1" d="M646.87,958.32c6.33,8.83,12.67,17.64,19,26.51a18.36,18.36,0,0,1,1.53,3.47"/><path class="cls-1" d="M636.88,640.53c.17,1,.33,2,.58,3.51l47.87,3"/><path class="cls-1" d="M334.17,417.68,329.41,423l4.27,2.95v17.71"/><path class="cls-1" d="M608.91,418.67c10.32,1.5,20.64,3.05,31,4.48,5.64.78,11.32,1.35,17,2"/><path class="cls-1" d="M153.85,996.8l3.69-4c3.52-.17,7.25-1.73,10.88.9,1,.72,2.91.08,4.41.12,7.83.2,15.66.42,25.14.68,7.16-7.88,15.45-17.06,23.84-26.15,3.19-3.46,6.68-6.64,9.94-10a40.66,40.66,0,0,0,3-4"/><path class="cls-1" d="M669.35,870.38l12.49-1.25v-9.24c-1.83,0-4.17,0-6.5,0-15.65-.32-31.3-.67-47-1a12.25,12.25,0,0,0-2.5.48"/><path class="cls-1" d="M312.7,624c-1.17,2.55-1.43,5.79-6,5.74l.56,1.49,4.67,2.72.76,17"/><path class="cls-1" d="M345.16,699c-.66,5.33-1.34,10.66-2,16a24.89,24.89,0,0,0,0,2.75h4.68c-.77-4.5-1.48-8.62-2.19-12.74"/><path class="cls-1" d="M233.27,530.6c-.66,4.83-1.34,9.66-2,14.49a22.63,22.63,0,0,0,0,2.75h4.26c-1.41-4.23,1.94-8.71-2.27-12.24"/><path class="cls-1" d="M267.24,336.73c-.67,4.83-1.35,9.66-2,14.49a22.44,22.44,0,0,0,0,2.75h4.27c-1.41-4.23,1.94-8.71-2.27-12.25"/><path class="cls-1" d="M821.7,746c-3.24,4.49-2.8,10.18,1.28,13.2,2.07-6.44.16-12.32-1.78-18.19"/><path class="cls-1" d="M595.42,370.21l12.72-1q-.36,16.47-.73,33"/><path class="cls-1" d="M778.74,530.6c-2.49,3.74-2.55,4.23-1.46,12.24h4.13c-.76-4.66-1.47-9-2.17-13.24-.19-1.16-.33-2.33-.5-3.5"/><path class="cls-1" d="M473.54,15.44c-.82,1.84-1.64,3.67-2.47,5.55,4.13,6.94,1,13.94-.08,20.92-.14.89-1.37,1.67-1.38,2.51-.11,8.49-.07,17-.07,25.48"/><path class="cls-1" d="M479.53,15.44c.84,1.83,1.67,3.66,2.56,5.62-3.6,5.78-2.3,12.45-.19,17.72,2.78,6.94,1.32,13.84,2.54,20.65.54,3.06.09,6.31.09,9.47"/><path class="cls-1" d="M398.11,484.13c-3.37,4.17-1.93,8.33.24,12.54a13.81,13.81,0,0,0,.76-12.54c-1.38-3.44-.52-5.66,2.5-6.49"/><path class="cls-1" d="M426.58,398.69c-7.16,2.83-14.29,5.73-21.5,8.43-1.51.57-3.3.4-5,.56"/><path class="cls-1" d="M322.19,907.36v-7.5c-6.32,0-12.66-.11-19,0-10.83.24-21.65.7-32.47,1q-24.48.57-49,1c-10.15.2-20.31.38-30.47.46a13.35,13.35,0,0,1-3.49-.95"/><path class="cls-1" d="M348.66,891.87c-8.66-.17-17.39-1.16-26-.34-22.12,2.11-44.3,1.63-66.45,2.32-14.32.44-28.64.58-43,1-8.83.3-17.65,1-26.47,1.46"/><path class="cls-1" d="M129.37,1027.78c.3-4.19.6-8.37.83-11.69,5.29-1.61,10.61-1.85,14-4.53,6.95-5.54,14.32-5.17,22.16-4.29q8,.9,16,1.46a4.07,4.07,0,0,0,2.94-1c3.6-3.89,7-7.94,10.54-11.94"/><path class="cls-1" d="M299.71,907.86a5.81,5.81,0,0,1-1.5.48q-40.21.28-80.42.51c-8.66,0-17.32,0-26,0"/><path class="cls-1" d="M499.51,188.82a10.77,10.77,0,0,0-9.48-6.6c-5.87-.54-11.64-2.08-17.5-2.83-4.2-.53-8.38,0-11.47,3.45-4.6,5.15-9.1,10.39-15.48,13.51-.27.13-.35.64-.65,1.24.36,3.24.75,6.73,1.14,10.22"/><path class="cls-1" d="M685.33,643c-7.82-.67-15.65-1.36-23.48-2-6.65-.54-13.31-1.07-20-1.49-6.49-.41-13-.69-19.48-1"/><path class="cls-1" d="M692.32,620.54c-3.65,1.71-4.3-1.32-5.74-3.94l3.24-3.55c4.15,0,4.9,2.11,3,7l2.53,4.41,5.17,2.07c0,.42,0,.84.05,1.26l-6.25,2.15V650"/><path class="cls-1" d="M399.61,403.18v5.95c-14.95,6.13-29.38,12.28-44,17.92-4.54,1.75-9.61,2.12-14.44,3.12"/><path class="cls-1" d="M248.76,939.34,237,953.12l-38.14-1.65c-.59,5.35-1.09,9.85-1.59,14.35"/><path class="cls-1" d="M574.94,834.9l-24.48-.5"/><path class="cls-1" d="M550.46,867.38l24.48.5"/><path class="cls-1" d="M540.47,833.9l-24-1"/><path class="cls-1" d="M263.74,923.35c-4.67,5.3-9.33,10.61-13,14.74H212c-.57,4.37-1.12,8.56-1.66,12.74"/><path class="cls-1" d="M540.47,867.38l-24-.5"/><path class="cls-1" d="M182.32,977.31c4-2.55.77-6.89,2.84-10.64,11.82-1.49,24,.1,36.12.65"/><path class="cls-1" d="M491,181.83c0-.67.24-1.46,0-2-2.65-5.09-5.4-10.13-8.2-15.34v-7.12l7.74,2.75c0-2.25.75-4.73-.15-6.2-1.87-3-5.4-4-8.84-4s-7,.33-10.41.52c.38-3.21.63-5.36,1-8.27l-5.54,2.19"/><path class="cls-1" d="M436.57,613.05l-22.47-2.19v19.68"/><path class="cls-1" d="M406.1,625.54q-27.72,6-55.44,12c-1.69.37-3.33,1-5,1.48"/><path class="cls-1" d="M415.1,624.54l34.46,2.5"/><path class="cls-1" d="M422.59,386.2c-.26-4.17-.52-8.34-.84-13.43L389.62,384.7"/><path class="cls-1" d="M406.1,613.55,383.83,618l.34,6.31,21.93-5.78"/><path class="cls-1" d="M348.66,899.36H327.18v7.5"/><path class="cls-1" d="M459.55,209.81c-3.16,1-6.31,2-9.49,3-12,3.62-22.44,10.19-32.49,17.46a13.52,13.52,0,0,1-3.29,1.17l-7.2-5.24c-.51,1.6-1,3.1-1.48,4.61"/><path class="cls-1" d="M187.82,870.38c3.55-4,.74-6.77-1.61-9.66-6.45,2.78-7.06,4.23-4.33,9.77l7.53.71c1.12,3.2,2.26,6.44,3.4,9.67"/><path class="cls-1" d="M416.59,645.53c-.65-4.84-1.3-9.67-2.08-15.5-8.87,1.85-17.78,3.16-26.35,5.65s-17.51-.13-26,2.35"/><path class="cls-1" d="M437.07,627v4.5H415.6"/><path class="cls-1" d="M300.71,900.86c-.21,2.17-.41,4.33-.66,7h48.61"/><path class="cls-1" d="M686.33,643.53v6l15.24,2.84v6.36l-6.75,4.81"/><path class="cls-1" d="M445.07,401.69V387.37l-10.59-1.26-.9,19.07"/><path class="cls-1" d="M409.6,572.08c.17,5.32.36,10.65.49,16,.05,2.23,0,4.15,1.82,6.16,1.15,1.3.52,4.17.69,6.34"/><path class="cls-1" d="M621.39,922.85c4.67,6.83,9.23,13.73,14,20.46,2.61,3.65,5.68,7,8.41,10.55a15.7,15.7,0,0,1,1.54,3.46"/><path class="cls-1" d="M675.34,773.94c-.21,2.5-.42,5-.63,7.57l6,1.21c2.54,7.37.79,10.87-5.92,12.21"/><path class="cls-1" d="M459.55,363.71q-.24,10-.5,20"/><path class="cls-1" d="M434.58,429.17c-5.71,3.31-11.06,7.79-18,7.84-3.65,0-7.41-1.26-11-2.43-2.8-.92-5.35-2.58-8-3.91"/><path class="cls-1" d="M498.51,369.21v19"/><path class="cls-1" d="M483.53,120.37c3.12,2.08,8.22,2.31,7.38,8.84L483,132.36"/><path class="cls-1" d="M469,135.36a21.13,21.13,0,0,0-4,2c-3.14,2.53-2.88,6.33.47,8.44,1.45.91,3,1.68,4.49,2.51"/><path class="cls-1" d="M468.54,89.39c.54-1,1.09-1.92,2-3.59,2.31,4.87,1.15,6.88-2,8.67-2.18,1.26-3.89,3.33-6.4,5.57l8.86,7.31c.45-2.7.75-4.54,1.21-7.33l-4.72,2.36"/><path class="cls-1" d="M657.36,415.18c-2.17.66-4.35,1.27-6.49,2-4.18,1.45-8.33,3-12.49,4.48"/><path class="cls-1" d="M332.68,642.53c-5.09-1-9.51,1.17-14.29,2.33.43,2,.72,3.39,1,4.86l11.76-1.19"/><path class="cls-1" d="M379.13,624.54v-5c-5.1,1.1-9.56,2-14,3q-9.27,2.16-18.48,4.52c-.74.19-1.34,1-2,1.46"/><path class="cls-1" d="M407.1,761.45q-.5,8.74-1,17.49"/><path class="cls-1" d="M464.05,200.32c-7.66,3.66-15.4,7.18-22.9,11.13-1.21.64-1.41,3.19-2.08,4.86"/><path class="cls-1" d="M229.28,918.35c.47,2.63.95,5.26,1.49,8.24h-5.28c-3.25,3.2-1.15,6.92-1.71,10.25"/><path class="cls-1" d="M191.31,902.86v5.33l-4,1.31v7.35"/><path class="cls-1" d="M483,91.89l5.7-3.17c1.71-4.74-2.3-6.78-5.27-7.57a26.79,26.79,0,0,0-12.37,0c-2.74.62-5,3.38-7.79,5.41,5.44,6.27,11.51,8,18.73,6.36"/><path class="cls-1" d="M350.66,857.39l-15.49,1"/><path class="cls-1" d="M393.62,463.65c.24,3.49.47,7,.74,10.81l4.75,3.18"/><path class="cls-1" d="M328.18,858.39l-21.48,1.5"/><path class="cls-1" d="M432.58,378.2c3.52-3.53.35-5.14-1.86-7.17-3.32,1.79-4.05,4.1-2.14,7.17"/><path class="cls-1" d="M467.54,117.37l2.66-3.85,1.9,1-1,5.7c7.45,1,14.38.16,20.08-6.77-1.17-1.14-2.43-3.14-4.24-4A22.58,22.58,0,0,0,467.6,109a7.15,7.15,0,0,0-3.75,4.89c-.1,1.2,2.7,2.63,4.19,4,.52.48,1,1,1.5,1.5"/><path class="cls-1" d="M360.65,641.53l-22.87,5.59L334.67,643"/><path class="cls-1" d="M328.18,866.88l-21.48.5"/><path class="cls-1" d="M471.54,165.84c-4.36,3.65-5.29,9-7,14"/><path class="cls-1" d="M668.85,989.8a2.94,2.94,0,0,1,.49.51c2.79,5.12,8.55,8.6,8.91,15,.27,4.8-.24,9.65-.41,14.48"/><path class="cls-1" d="M470.54,68.9c5.45-.33,11.15-2.18,16,2,3.36,2.94,2.94,4.64-1.83,7.16-3.35-4.32-7.58-5.63-13.14-2.13V80.4"/><path class="cls-1" d="M466.55,130.86c1.52-3.54,3.4-3.22,5.65-.29l-1.89,3.19c.37.3.54.56.73.58,3.16.36,6.33.66,9.49,1,2.5.29,5.25.13,7.41,1.17,1.46.71,3.17,3.43,2.82,4.75-.5,1.92-2.59,3.57-4.3,5-.78.65-2.26.46-4.16.76.28-1.59.5-2.88.73-4.18l5,1.5"/><path class="cls-1" d="M391.12,230.8c-.33-1.5-1.21-3.14-.88-4.47.54-2.11,1.88-4,3.1-6.46.82.69,1.86,1.17,2.22,2,2.45,5.33,6.17,9.09,12,10.52.43.1.68,1,1,1.45"/><path class="cls-1" d="M360.15,639l-14,3"/><path class="cls-1" d="M636.38,644l-14-1"/><path class="cls-1" d="M740.78,328.73a10.88,10.88,0,0,0,0,13c2.42-2.91,2.42-2.91-.5-18.48"/><path class="cls-1" d="M374.64,638l-13.54,4.12c.23-2.51.39-4.31.55-6.12"/><path class="cls-1" d="M340.17,419.17c-.5-1.16-1.69-2.58-1.37-3.45,1.06-2.86-.41-3.81-3.57-5.15l-1.55,5.11,4.49,1"/><path class="cls-1" d="M178.33,737.47c2.41,2.89,2.76,7.35.63,13.55-1.12-1.52-2.56-2.58-2.51-3.55.19-3.52,1-7,1.34-10.51.22-2.31,0-4.66,0-7"/><path class="cls-1" d="M468.54,70.4c-2.19,1.4-4.44,2.77-3.13,6.68L471,78.4"/><path class="cls-1" d="M482,88.39c.19,1.5.37,3,.57,4.54,7.16,4.54,7.16,4.54,7.46,9l-7,2.9"/><path class="cls-1" d="M318.69,649.52,305,653.69v5.77c2.05.85,5.16.75,4.75,4.56"/><path class="cls-1" d="M399.61,382.2q.25,6.49.5,13"/><path class="cls-1" d="M435.08,396.19l37.46,3.5"/><path class="cls-1" d="M469.54,120.37a36.26,36.26,0,0,0-3.48,2c-4.34,3.2-4.16,5.93.48,9,.88.59,1.67,1.32,2.5,2"/><path class="cls-1" d="M470,150.35a6.3,6.3,0,0,0-2,1c-1.58,1.76-4.06,3.55-4.22,5.49-.15,1.71,2.06,4,3.74,5.41,4.29,3.65,9.24,5.39,14.93,3.56"/><path class="cls-1" d="M674.84,870.88q-.24,6-.5,12"/><path class="cls-1" d="M663.35,439.16c1.22,4.27-1.85,6.3-4.52,8.47a16,16,0,0,1-3,1.53"/><path class="cls-1" d="M345.16,644v-5.37L335.67,641"/><path class="cls-1" d="M486.53,129.36c-4.93-2.14-9.89-3.49-15-.5"/><path class="cls-1" d="M471.54,163.84c.13-2,.26-4,.45-6.79l-5.94,2.79"/><path class="cls-1" d="M598.92,858.39h24.61c2.81,1.27,3.48,4.55,3.46,8.49,0,2.5,0,6,1.57,7.28,3.15,2.58,2.6,5.94,2.65,8.72.23,12.31-.16,24.64-.33,37"/><path class="cls-1" d="M636.38,945.83c-.17,3.67-.33,7.33-.5,11"/><path class="cls-1" d="M361.65,863.39c3.84-5.09-.6-7.27-3.59-10.64l-5.21,6.4c.68,1.78,1.24,3.26,1.8,4.74"/><path class="cls-1" d="M349.66,914.35c.17-14.16.31-28.31.55-42.47a4.42,4.42,0,0,1,1-2h16v45"/><path class="cls-1" d="M471.54,41.92H482"/><path class="cls-1" d="M482.53,107.38c-.16-2.33-.33-4.67-.52-7.4-3.14-.68-6.31-1.52-9.47.4"/><path class="cls-1" d="M485,89.89c-3.2-3.94-7.55-5.63-12.49-2.5"/><path class="cls-1" d="M758.26,878.38h10"/><path class="cls-1" d="M292.72,759c.63,4.32,2.71,7,7.49,6.5"/><path class="cls-1" d="M482.53,142.85c-3.21-2.48-6.58-2-10-.5"/><path class="cls-1" d="M487,115.87c-4.76-1.21-9.47-2.85-14.49-1.5"/><path class="cls-1" d="M428.58,431.67a42.25,42.25,0,0,0-19,3.49"/><path class="cls-1" d="M658.36,414.68q-.25,6.49-.5,13"/><path class="cls-1" d="M481.53,157.35h-9"/><path class="cls-1" d="M155.35,997.3c.17,2.83.33,5.66.5,8.49"/><path class="cls-1" d="M313.2,868.38c-.17,2.83-.34,5.67-.5,8.5"/><path class="cls-1" d="M401.61,900.86c-.17,2.83-.33,5.66-.5,8.5"/><path class="cls-1" d="M458.55,353.22c-.33,2.66-.66,5.33-1,8"/><path class="cls-1" d="M619.4,859.89c-1.09,2.66-2.77,5.33,0,8"/><path class="cls-1" d="M669.35,905.86v7.49"/><path class="cls-1" d="M717.3,906.86c-.17,2.5-.33,5-.5,7.49"/><path class="cls-1" d="M498.51,403.18v7.5"/><path class="cls-1" d="M312.2,884.37v7.5"/><path class="cls-1" d="M317.69,623c1.26-2.87.63-4.95-2.44-6.24-3.83,1.66-3.77,4-1.13,7.28l4.21-.63,1.86,3.59"/><path class="cls-1" d="M410.1,592.56c-2.05,1.88-5.94,3-3,7"/><path class="cls-1" d="M710.81,906.86v7"/><path class="cls-1" d="M277.23,885.87v7"/><path class="cls-1" d="M327.18,884.37c.17,2.33.33,4.67.5,7"/><path class="cls-1" d="M754.76,913.85c2.73,1.86,2.31,4.39,1.5,7"/><path class="cls-1" d="M280.73,885.87q.5,3.5,1,7"/><path class="cls-1" d="M674.84,890.87v7"/><path class="cls-1" d="M459.55,390.69v14"/><path class="cls-1" d="M300.21,884.87v7"/><path class="cls-1" d="M669.85,890.87v7"/><path class="cls-1" d="M222.28,887.37q-.24,3.5-.5,7"/><path class="cls-1" d="M776.24,276.77c-.55,3.37-1.1,6.75-1.78,10.9l2.78,1.59"/><path class="cls-1" d="M109.89,1022.28l-5,6.5"/><path class="cls-1" d="M480,23.93h-6.49"/><path class="cls-1" d="M554,402.19v7.49h2.5"/><path class="cls-1" d="M561,403.18v12.5"/><path class="cls-1" d="M505.51,404.18c-.17,2.17-.34,4.33-.5,6.5"/><path class="cls-1" d="M404.61,608.05c.83,1.5,2.31,3,2.38,4.5.28,6.15.11,12.32.11,18.49"/><path class="cls-1" d="M322.19,884.37v6.5"/><path class="cls-1" d="M312.7,900.86v6.5"/><path class="cls-1" d="M607.91,409.18q.24,6.26.5,12.49"/><path class="cls-1" d="M352.66,868.88c.9-5.5.9-5.5,11-4.38v4.38"/><path class="cls-1" d="M473.54,393.69v10"/><path class="cls-1" d="M594.92,407.68c-.17,2-.33,4-.5,6"/><path class="cls-1" d="M280.23,901.86v6"/><path class="cls-1" d="M275.73,901.86q-.24,3-.5,6"/><path class="cls-1" d="M251.76,901.86c.16,2,.33,4,.49,6"/><path class="cls-1" d="M247.26,902.36v6"/><path class="cls-1" d="M191.31,888.87v6"/><path class="cls-1" d="M215.29,902.86v5.5"/><path class="cls-1" d="M400.61,433.17l-3.5,5.49"/><path class="cls-1" d="M220.79,902.86v5.5"/><path class="cls-1" d="M488.52,160.34l-5,2.5"/><path class="cls-1" d="M377.63,411.68q.51,2.74,1,5.5"/><path class="cls-1" d="M621.89,626.54c-.16,1.83-.33,3.66-.5,5.5"/><path class="cls-1" d="M659.36,642l-4.5,2.5"/><path class="cls-1" d="M489.52,856.89c-1.35,2.83-3.45,5.66,0,8.49"/><path class="cls-1" d="M575.44,636.53v4"/><path class="cls-1" d="M252.75,885.87h-4"/><path class="cls-1" d="M337.67,647.53l-.9,5-3.59-1"/><path class="cls-1" d="M521,406.18c.17,1.17.34,2.33.5,3.5"/><path class="cls-1" d="M482.53,128.36v6"/><path class="cls-1" d="M171.33,727l-1.49-.5"/></g></g></svg>