<svg xmlns="http://www.w3.org/2000/svg" viewBox="0 0 605.59 1159.25"><defs><style>.cls-1{fill:none;stroke:#fff;stroke-linecap:round;stroke-linejoin:round;stroke-width:2px;}</style></defs><g id="Слой_2" data-name="Слой 2"><g id="Слой_1-2" data-name="Слой 1"><path class="cls-1" d="M579,899l-18,3.5c-10.17,2-20.28,4.33-30.51,5.92-13,2-26,3.57-39,5-6.46.72-13,.8-19.49,1.06q-26,1.05-52,2c-8.17.32-16.33.89-24.5,1-48.17.41-96.33.83-144.5,1-18.5,0-37-.55-55.5-1-9.67-.21-19.34-.49-29-1-15.84-.86-31.7-1.64-47.49-3.06C106,912.22,93,910,80,908.54a357.08,357.08,0,0,1-48-9,14.5,14.5,0,0,0-3.49,0"/><path class="cls-1" d="M61.5,759c5.17.83,10.36,1.54,15.49,2.53,11.69,2.25,23.3,4.89,35,6.9s23.31,3.52,35,5c5.12.65,10.32.82,15.49,1,17.33.72,34.67,1.33,52,2,6.34.26,12.67.93,19,1q71.75.12,143.5,0c12.5,0,25-.47,37.5-1,10.51-.44,21-1,31.49-2,10.87-1,21.65-2.88,32.52-3.87,23.06-2.12,45.52-7.32,68-12.53,2.45-.57,5.91,1.18,6.92-2.55,1.05-3.9,1.55-8,2.36-12.34-9.33,2.35-18.26,4.84-27.3,6.79-8.44,1.82-17,3.22-25.5,4.53-9.8,1.51-19.65,2.76-29.49,4-4,.51-8,.79-12,1-7.16.4-14.33.76-21.5,1q-31.5,1.05-63,2c-13.83.4-27.67.9-41.5,1q-45.49.22-91,0c-16.33-.09-32.67-.47-49-1-12.34-.41-24.69-1-37-2s-24.36-2.48-36.51-4c-12.35-1.52-24.73-3-37-5.09-8.94-1.56-17.68-4.24-26.52-6.37-2.48-.59-5-1-7.5-1.51"/><path class="cls-1" d="M538,602.5c.17-2.33.34-4.67.53-7.3-8.07,1.95-16,4.11-24,5.74-8.78,1.77-17.63,3.25-26.5,4.51-10.8,1.54-21.65,2.81-32.49,4-5.15.57-10.33.81-15.5,1q-38,1.56-76,3c-1.17,0-2.33,0-3.5,0-40.67,0-81.33.08-122,0q-20.25-.06-40.5-1c-15.51-.73-31-1.53-46.49-3.06-14.55-1.44-29.07-3.55-43.49-6-13.08-2.2-26-5.23-39-7.9"/><path class="cls-1" d="M431,569c.83-2.57,1.65-5.13,2.74-8.5H175.07c-1,7.51.06,9,6.43,9q123.5,0,247,.16c5.5,0,11,2.36,16.51,3.32,13.14,2.27,26.27,4.77,39.51,6.4,10.58,1.31,21.31,1.62,32,2.09,13.48.59,26.55-2.08,39.5-5.44a10.59,10.59,0,0,1,5.31,0c-3.27,4.82-6.13,10-9.92,14.37-4,4.61-8.89,8.44-13.4,12.59-.26.24-1,.36-1,.51.35,8.18-6.62,5.87-10.58,6.83-12.89,3.12-25.9,5.86-39,8.06-11.08,1.86-22.29,3-33.49,4-14.3,1.28-28.65,2.15-43,3-8.16.5-16.33.93-24.5,1q-78,.62-156,1c-11,0-22-.48-33-1-10.17-.48-20.37-.92-30.49-2.05-14.87-1.66-29.73-3.6-44.5-6-13.73-2.24-27.27-5.79-41-7.68-6.88-.94-9.42-4.11-10-10.23-.12-1.34-.32-2.67-.49-4"/><path class="cls-1" d="M95.5,471a50.56,50.56,0,0,1,7,.55c13.52,2.9,27,6.3,40.53,8.83a256.27,256.27,0,0,0,27,3.07c15.49,1.19,31,2.38,46.5,3,18.49.7,37,.79,55.5,1.08,14.67.22,29.33.49,44,.47,22,0,44-.1,66-.54,12.51-.24,25-.89,37.49-2,13.54-1.23,27.08-2.8,40.49-5,17.57-2.89,35-6.5,52.51-9.92,5.31-1,8.59-6.29,7.89-12.46-.07-.6-2-1.62-2.86-1.42-8.54,2.18-16.94,4.94-25.54,6.8-7.22,1.55-14.64,2.16-22,3.1-10.83,1.38-21.66,2.75-32.5,4-4.65.53-9.33.83-14,1-11,.42-22,.81-33,1q-35.25.61-70.5,1c-15.5.21-31,.48-46.5.47-16,0-32-.09-48-.52-14.17-.38-28.35-1.09-42.5-2-10.85-.7-21.76-1.38-32.48-3.07-18.24-2.87-36.35-6.53-54.52-9.89-.86-.16-1.64-.79-2.51-.94a17.83,17.83,0,0,0-3,0c.4,7.85,4,14.1,9,20.07C110,490.35,120.17,503.5,130.5,516.5"/><path class="cls-1" d="M504.5,317c-6.33,1.33-12.64,2.8-19,4-8.81,1.62-17.63,3.2-26.5,4.49-10.47,1.52-21,2.81-31.49,4-5.14.58-10.33.82-15.5,1-26.5,1-53,2.53-79.5,2.87-25.83.34-51.67-.54-77.5-.84-7.83-.09-15.67.22-23.5-.06-13.84-.49-27.68-1.09-41.5-2-10.18-.68-20.42-1.42-30.48-3.06-16.74-2.73-33.35-6.22-50-9.37-1.48-.28-3-.38-5-.63.74,3.65,1.21,6.67,2,9.61,1.35,5.14,6.29,3.56,9.51,4.33,14.24,3.42,28.59,6.38,43,9.09a180.87,180.87,0,0,0,19.48,2.06c14.33,1.09,28.67,2,43,3,5.17.35,10.33.9,15.5,1,35,.41,70,.82,105,1,12.17.05,24.34-.46,36.5-1,10.67-.46,21.36-1,32-2,13.87-1.37,27.76-2.79,41.49-5.05,15.92-2.64,31.7-6.17,47.5-9.48A4.89,4.89,0,0,0,502.4,327c1-3.07,1.43-6.3,2.1-9.47"/><path class="cls-1" d="M580.5,897c-1.33,4.5-2.4,9.11-4.14,13.45-.66,1.66-2.89,3.9-4.36,3.86-10.61-.24-20.27,4.19-30.5,5.72-11.35,1.7-22.65,3.74-34,5.44q-15,2.24-30,4c-6.15.72-12.33,1.2-18.5,1.51-12.5.61-25,1.18-37.5,1.48-9.83.24-19.67,0-29.5.06-56.5.32-113,.73-169.5.93-12.83,0-25.67-.56-38.5-1-6.84-.22-13.67-.65-20.5-1-10.33-.5-20.73-.43-31-1.62-20.88-2.43-41.71-5.31-62.49-8.49-8.61-1.32-17-4-25.53-5.83-1.91-.42-4.11.37-6-.14-5-1.39-8-4.75-9.08-9.91-.55-2.55-.1-5.77-3.44-7"/><path class="cls-1" d="M578.5,905.5c1.83-.83,4.19-1.2,5.41-2.58,7-7.84,13.76-15.91,20.56-23.95.25-.29,0-1,0-2.06-4.72.87-9.44,1.43-14,2.64-14.5,3.87-29.21,4-44,2.93-8-.56-16.07-.85-24-2.08-13.56-2.13-27.09-4.58-40.5-7.51-9.62-2.1-19-5.26-28.53-7.85a18.9,18.9,0,0,0-5-.52q-144.49,0-289,0a8.34,8.34,0,0,1-1.5,0c-2.48-.49-5.78,2.35-7.36-1-1.16-2.49-1.06-5.56-1.62-8.94H457.68c-.71,4,1.37,7.84-2.68,10.5"/><path class="cls-1" d="M168,713.5c-.83-1-2.16-1.9-2.39-3-.4-1.92-.68-4.26.11-5.87.45-.93,3.1-1,4.78-1.06,3.83-.15,7.67,0,11.5,0H441.87c2.26,8.58-1.31,10.09-7.87,10.08q-127-.18-254-.11a58,58,0,0,0-18.57,2.81,255.67,255.67,0,0,1-40.91,9.36A298.59,298.59,0,0,1,74,729.53c-13.93,0-27.52-2.3-41-5.5-.94-.23-2,0-4.29,0,2.56,3.58,4.44,6.76,6.85,9.46,5.34,6,10.93,11.72,16.49,17.5.33.33,1.29,0,2,0"/><path class="cls-1" d="M334,1076c0-5.33.06-10.67,0-16-.12-9.17-.47-18.33-.45-27.5,0-12.83.32-25.67.45-38.5.06-6.67,0-13.35,0-20.25H271.5V1076"/><path class="cls-1" d="M520,464c8-5.48,19.64-21.26,20-27.15-6,1.39-12,3.25-18,4-7.76,1-15.64,1.21-23.48,1.58a78.89,78.89,0,0,1-12.49,0c-9.86-1.09-19.73-2.3-29.5-4-11.55-2-23-4.61-34.52-6.89a21.24,21.24,0,0,0-4,0c-71.5,0-143,.1-214.5-.11a121.21,121.21,0,0,0-31,4c-10.33,2.67-21,4.06-31.46,6.17-12.58,2.54-25.32,2.29-38,1.85-8.52-.3-17-1.79-25.49-2.91-3.2-.42-6.34-1.29-9.51-2"/><path class="cls-1" d="M388,1080.5q6,25.76,12,51.5c2,8.63,4,17.26,6,26.25H199.35c5.45-22.5,10.82-44.62,16.42-67.75H210.5q-85.5,0-171,0c-2.5,0-6.19.61-7.21-.71-1.35-1.74-.64-5.1-.78-7.77a24.64,24.64,0,0,1,.19-2.5c8,0,15.63,0,23.3,0,18.67-.14,37.33-.44,56-.45,14.83,0,29.67.37,44.5.44q28.5.12,57,0c7.67,0,15.33-.31,23-.48"/><path class="cls-1" d="M334.5,248a49.73,49.73,0,0,1-5,.48c-18.67,0-37.33,0-56.5,0v-13h62.25v14.14c10,5.69,20.52,11.92,31.27,17.83A295.2,295.2,0,0,0,432,293.89a320.74,320.74,0,0,0,32,6.5,214.83,214.83,0,0,0,23,2.06c11.58.61,22.84-1.62,34-4.42a22.56,22.56,0,0,1,4.11,0c-2.42,3.83-4.34,7.3-6.66,10.47-3.51,4.78-7.22,9.42-11,14-.73.87-2.27,1.05-3.44,1.55"/><path class="cls-1" d="M272.5,250C250,265.66,225.57,277.77,200,287.39a303.28,303.28,0,0,1-34,10.45c-9.3,2.29-18.92,3.47-28.47,4.56a129.38,129.38,0,0,1-22,1c-8.87-.52-17.67-2.2-26.51-3.34-1.32-.16-2.66-.13-4.82-.23,6.1,9.83,11.5,19.34,21.32,25.22"/><path class="cls-1" d="M391.5,1090.5h174c9.92,0,9.92,0,8.43-11H393.5c-6.17,0-12.33.07-18.5,0a29.35,29.35,0,0,1-5-1"/><path class="cls-1" d="M227,1024c-.17-7.83-.42-15.67-.48-23.5-.08-10.84,0-21.67,0-32.75h-59v62.75"/><path class="cls-1" d="M438.5,1030.5V967.75h-59c0,8.08.06,15.91,0,23.75-.1,10.83-.31,21.67-.48,32.5"/><path class="cls-1" d="M591,1146.5H404.5"/><path class="cls-1" d="M14,1146.5q91,0,182,0a49.73,49.73,0,0,1,5,.48"/><path class="cls-1" d="M225,1141a49.73,49.73,0,0,0,5,.48q73.25,0,146.5,0c3.72,0,6.16.29,6.14,5,0,3.66,1.19,7.33,1.86,11"/><path class="cls-1" d="M152,865.5c-6.17,2.33-12.21,5.1-18.53,6.9-10.56,3-21.22,5.84-32,8A228.33,228.33,0,0,1,76,883.44c-9.47.77-19,1.48-28.49,1.46a136.16,136.16,0,0,1-39-5.34c-2.38-.72-5-.73-7.48-1.06"/><path class="cls-1" d="M228.5,1124.5c1.83.17,3.67.48,5.5.48q71.75,0,143.5,0"/><path class="cls-1" d="M232.5,1108.5q68.51,0,137,0c3.72,0,5.56.44,6.22,5,1.24,8.61,3.81,17,5.74,25.54a6.7,6.7,0,0,1-.46,2.49"/><path class="cls-1" d="M440.5,713.5c6.67,2,13.24,4.43,20,5.9,11.59,2.52,23.26,4.76,35,6.52,15.72,2.36,31.63,3.56,47.47,2.38,10.09-.75,20-3.47,30-5.3,2-.35,4-.66,5.92-1l.78,1c-3.9,5.34-7.61,10.83-11.77,16a97.7,97.7,0,0,1-9.47,9.51c-.88.82-2.29,1-3.46,1.55"/><path class="cls-1" d="M247,938c.17,5.83.47,11.67.48,17.5,0,38.5,0,77,.07,115.5,0,6.5-.77,6.12-6.05,6a29.48,29.48,0,0,0-4.56.47c-.7,5.57-1,10.6-2,15.47-2.1,9.89-4.69,19.66-6.9,29.53-2.61,11.64-5,23.32-7.53,35"/><path class="cls-1" d="M235.5,1092a32.08,32.08,0,0,0,4,.48q63.5,0,127,0a32.08,32.08,0,0,0,4-.48"/><path class="cls-1" d="M177,569.5c-8.83,2.33-17.59,5-26.52,6.91-9.75,2.07-19.6,4.32-29.49,4.88a426.07,426.07,0,0,1-43.48,0c-9.56-.44-19.05-2.54-29.07-4A12.62,12.62,0,0,0,49.52,580c5.78,8.29,11.43,16.7,20,22.49a6.14,6.14,0,0,0,2,.53"/><path class="cls-1" d="M358.5,938q0,66.5,0,133c0,1.83-.31,3.67-.48,5.5"/><path class="cls-1" d="M390.5,366c-12.67-.17-25.33-.53-38-.45s-25.33.73-38,.92c-10.83.16-21.67.08-32.5,0-5,0-10-.22-15-.51-3.39-.21-4.64.93-4.58,4.53.21,12.33.08,24.67.08,37"/><path class="cls-1" d="M357.5,950c-1.83.17-3.67.48-5.5.48q-52.24,0-104.5,0"/><path class="cls-1" d="M457.5,950.5h-99"/><path class="cls-1" d="M246.5,950c-1.83.17-3.67.48-5.5.48q-46.24,0-92.5,0"/><path class="cls-1" d="M220.5,1047.5q-19.5.26-39,.49c-3.67,0-7.33.06-11,0-9.17-.14-18.33-.47-27.5-.45-13.17,0-26.33.37-39.5.44-16.67.08-33.33,0-50,0"/><path class="cls-1" d="M384.5,1048c15.5,0,31,.06,46.5,0,15.33-.08,30.67-.44,46-.44,13.67,0,27.33.4,41,.42,10,0,20-.32,30-.43a36.14,36.14,0,0,1,4.5.47"/><path class="cls-1" d="M396.5,505.5c-11.33.17-22.67.36-34,.49-5.33.06-10.67,0-16,0-2.79,0-3.05,1.79-3,4q.3,24.25.5,48.5c0,.33-.31.67-.48,1"/><path class="cls-1" d="M348,839.5H162.5"/><path class="cls-1" d="M348.5,853.5V795h-157"/><path class="cls-1" d="M429.5,698.5c-17.67.17-35.33.47-53,.46-20.67,0-41.33-.4-62-.42-14.33,0-28.67.42-43,.42-13,0-26-.44-39-.42-16.83,0-33.67.31-50.5.44a38.17,38.17,0,0,1-4.5-.48"/><path class="cls-1" d="M402.5,645.5h-200"/><path class="cls-1" d="M262,688a49.73,49.73,0,0,0,5,.48q65.51,0,131,0h31.5"/><path class="cls-1" d="M343,408c-2.67,0-5.33,0-8,0-12-.15-24-.46-36-.45-14.5,0-29,.42-43.5.42-13.67,0-27.33-.32-41-.45-6.84-.06-13.67,0-21,0v14"/><path class="cls-1" d="M343,545.5H185.84c-.3,5-.57,9.49-.84,14"/><path class="cls-1" d="M420.5,555.5h-234"/><path class="cls-1" d="M147.5,931.5q-.5,57.5-1,115"/><path class="cls-1" d="M343,506.5a24.73,24.73,0,0,0-3.5-.48q-35.75,0-71.5,0c-5.49,0-5.5,0-5.5,5.5v48"/><path class="cls-1" d="M458.5,931.5c0,31.5-.06,63,.09,94.5,0,3.5,1.49,7,1.84,10.51.33,3.3.07,6.66.07,10"/><path class="cls-1" d="M162.5,1078.5v-12.25h-51v12.25"/><path class="cls-1" d="M412.5,417.5h-218"/><path class="cls-1" d="M443.5,839.5H349"/><path class="cls-1" d="M494,1052v7.75H442.5V1053"/><path class="cls-1" d="M162,1052c.24,2.49.48,5,.75,7.75H111.5V1053"/><path class="cls-1" d="M552.5,1066H500.28l-.78,12.5"/><path class="cls-1" d="M53.5,1066H106v13"/><path class="cls-1" d="M437,1079v-13H384.5"/><path class="cls-1" d="M413.5,794.5c-2.17.17-4.33.47-6.5.48q-29,.06-58,0"/><path class="cls-1" d="M442.5,1078.5v-12.25H494V1079"/><path class="cls-1" d="M248,1076.5c4.5.17,9,.47,13.5.48q33.25.07,66.5,0a49.73,49.73,0,0,0,5-.48"/><path class="cls-1" d="M437,1052v8H384.5"/><path class="cls-1" d="M499.5,1053v7H507c13.5,0,27,0,40.5,0,1.67,0,3.33.31,5,.48"/><path class="cls-1" d="M168,1053v7h52.5"/><path class="cls-1" d="M176.5,702.5V688c8.66,0,16.83,0,25,0q27.5.19,55,.51a34.09,34.09,0,0,1,4,.48"/><path class="cls-1" d="M106,1053v7H53.5"/><path class="cls-1" d="M458.5,1031c-1.83.17-3.67.48-5.5.48q-33,0-66,0c-2,0-4.06.36-6.61.59,4.55,10.29,3.61,20.09,3.16,29.89-.26,5.49-.05,11-.05,16.5"/><path class="cls-1" d="M148,1031c8.33.17,16.67.44,25,.48,16.5.07,33,0,49.5,0"/><path class="cls-1" d="M571.5,1091.5q0,24.49,0,49c0,1.67-.31,3.33-.48,5"/><path class="cls-1" d="M34,1091.5a32.08,32.08,0,0,0-.48,4q0,23,0,46a32.08,32.08,0,0,0,.48,4"/><path class="cls-1" d="M420.5,545.5H344"/><path class="cls-1" d="M398.5,853.5c.36-2.7-1.1-3.54-3.5-3.51-2.67,0-5.33,0-8,0q-39,0-78,0a49.73,49.73,0,0,0-5,.48"/><path class="cls-1" d="M168,1079c0-3.5-.05-7,0-10.5,0-2,.63-2.33,3-2.18,6.13.38,12.32-.25,18.49-.3,10.33-.08,20.67,0,31,0"/><path class="cls-1" d="M263,506.5c-1.67-.17-3.33-.47-5-.48q-22.75-.06-45.5,0a18.36,18.36,0,0,0-3,.48"/><path class="cls-1" d="M303.5,853.5c.36-2.7-1.1-3.54-3.5-3.51-2.67,0-5.33,0-8,0q-39,0-78,0a49.73,49.73,0,0,0-5,.48"/><path class="cls-1" d="M500,330.5c-5,8.17-9.79,16.47-15.06,24.46-5.4,8.18-11.27,16-16.94,24"/><path class="cls-1" d="M162.5,850c13.33,0,26.67,0,40,0,2.43,0,5.75-1,5.5,3.47"/><path class="cls-1" d="M262,366.5c-6.83-.17-13.67-.39-20.5-.47-2.5,0-5,.47-7.5.44-6.5-.07-13-.3-19.5-.47"/><path class="cls-1" d="M109.5,331c3.67,6.5,7,13.18,11.07,19.46,6.08,9.49,12.6,18.71,18.93,28"/><path class="cls-1" d="M412.5,407.5c-13.5.17-27,.42-40.5.47-7.5,0-15-.34-22.5-.44a51,51,0,0,0-5.5.47"/><path class="cls-1" d="M53.5,745c-.27,10.89,7.9,16.62,14.59,22.91,10.83,10.18,22.24,19.76,33.42,29.58,1.95,1.72,4,3.34,6,5"/><path class="cls-1" d="M550,759a36.92,36.92,0,0,1-3.53,4.47q-20.93,19.57-42,39"/><path class="cls-1" d="M534,610c-4.33,5.33-8.34,11-13.07,15.93-9.43,9.89-19.26,19.4-28.93,29.07"/><path class="cls-1" d="M516,470.5c-5.17,7.33-10,14.94-15.59,21.93-6.63,8.3-13.91,16.07-20.91,24.07"/><path class="cls-1" d="M77,611c5,6,9.71,12.28,15.07,17.94,8.58,9.07,17.6,17.73,26.43,26.56"/><path class="cls-1" d="M443.5,849.5c-3.67.17-7.33.42-11,.48-11.17.21-22.33.35-33.5.52"/><path class="cls-1" d="M258.5,795.5v58"/><path class="cls-1" d="M415,790c-.17,3.17-.46,6.33-.48,9.5,0,13,0,26,0,39"/><path class="cls-1" d="M39,916c5,4.67,9.72,9.68,15.06,13.92C62.83,936.88,72,943.33,81,950"/><path class="cls-1" d="M190.5,790v48.5"/><path class="cls-1" d="M571.5,916,529,950"/><path class="cls-1" d="M201.5,641v46.5"/><path class="cls-1" d="M403.5,641v46.5"/><path class="cls-1" d="M261.5,646.5q0,19,0,38a34.09,34.09,0,0,1-.48,4"/><path class="cls-1" d="M345.5,646.5v52"/><path class="cls-1" d="M304,53.5c7.34-.91,9.5.91,9.5,8V87.79L304,87"/><path class="cls-1" d="M299.5,53c-4,1-5.61,2.75-5.21,7.52.74,8.77.21,17.65.21,27h8.93a33.72,33.72,0,0,0,.55-4c0-8.83-.11-17.67.1-26.5.07-2.85-1.1-4-3.58-4.5"/><path class="cls-1" d="M185,431.5l-2.64-9h242.8c-.83,3.47-1.5,6.24-2.16,9"/><path class="cls-1" d="M343.5,367v54.5"/><path class="cls-1" d="M213.5,362v44.5"/><path class="cls-1" d="M391.5,362v44.5"/><path class="cls-1" d="M382,1038.5l-11,.79a33.27,33.27,0,0,0-.49,4.21c0,9.5,0,19-.08,28.5,0,2.34-.68,4.66-.93,7a13.67,13.67,0,0,0,0,4c1.59,7.85,3.31,15.67,4.92,23.52.13.6-.29,1.32-.46,2"/><path class="cls-1" d="M563.5,1034c1,3.5,2.75,7,2.86,10.5.37,11.33.14,22.67.14,34"/><path class="cls-1" d="M41.5,1034.5a27.86,27.86,0,0,0-3.09,14c.29,10,.09,20,.09,30"/><path class="cls-1" d="M397.5,501v43.5"/><path class="cls-1" d="M208.5,501v43.5"/><path class="cls-1" d="M232.5,1034.5c2.45,3.82,3.13,8,3.09,12.5-.11,10,.24,20,.41,30"/><path class="cls-1" d="M3.5,880c3.59,8.24,10.14,14.07,16.56,19.93C22.69,902.34,26,904,29,906"/><path class="cls-1" d="M282.5,234.5V222.75h44V234.5"/><path class="cls-1" d="M70.5,440c1.33,2.33,2.4,4.87,4,7,4.18,5.29,8.56,10.43,13,15.49.75.86,2.27,1.05,3.44,1.55"/><path class="cls-1" d="M300,168.5c3.67.17,7.46-.19,11,.67,2.75.68,4.6-.76,4.76-2.2s-2-4.2-3.23-4.26c-6-.3-12,.11-18,.3-2.24.06-3.67,1.28-2.87,3.44.42,1.11,2.4,2.6,3.34,2.4,4-.88,4.75.65,4.09,4.16-.21,1.1.27,2.32.44,3.49"/><path class="cls-1" d="M299.5,199.5c3.33,0,6.8-.58,10,.17,3,.7,5.79,1.54,6.9-1.72,1.28-3.8-2.17-4.71-4.87-4.86a144.56,144.56,0,0,0-16,0c-2.47.13-5.38,1.52-4.81,4.37s3.22,4,6.32,3.07a6.76,6.76,0,0,1,2,.18V207"/><path class="cls-1" d="M556.5,1033.5c1.33,0,2.67-.06,4,0,2.18.13,4.69,0,4.82-2.52.09-1.79-1-4.48-2.44-5.27a7.41,7.41,0,0,0-6.26,0c-1.28.72-2.55,4.34-1.92,5.12,2.11,2.59.26,4.46-.16,6.67a63.52,63.52,0,0,0-1.47,10.49c-.19,10.33-.07,20.67-.07,31"/><path class="cls-1" d="M368,1077.5c-9.17-.17-18.33-.31-27.5-.52-1.84,0-3.67-.31-5.5-.48"/><path class="cls-1" d="M161.5,853.5c-.82-6.32,1.95-12.94-1.95-19-2.75-4.29-3.74-4.8-9.8-2.71l4.75,5.37V853.5"/><path class="cls-1" d="M185.5,545c-.33-1-.64-2-1-3-1.62-4.38-3.45-5.14-9.7-4,.61,3.54,3,4.92,6.21,5.46"/><path class="cls-1" d="M419.5,421.5V405.58l4.71-4.83c-7.09-2.44-10.95.76-10.76,7.75.12,4.33-.28,8.67-.45,13"/><path class="cls-1" d="M303.5,1c.7,3.57.85,6.67-2.4,9.61-3.93,3.54-3.53,5.62.4,9.89"/><path class="cls-1" d="M51.5,1030.5c-.73-2.78-1.56-5.84-5-5.85-1.83,0-4.38,1-5.31,2.47-1,1.61-.62,4.16-.92,7.22,4.51-1.9,8.85,1.32,11.23-3.34"/><path class="cls-1" d="M299.5,114c-1.33.33-2.65.78-4,1-3.76.55-5,2.48-3.56,6h23.85c-.47-1.62-.44-3.81-1.38-4.35a22.92,22.92,0,0,0-7.43-2.56c-2.25-.41-4.65-.09-7-.09"/><path class="cls-1" d="M176.5,688c-2.37-8.44-4.35-9.79-11.74-7.25l4.74,5V702.5"/><path class="cls-1" d="M299.5,146c-2,.5-4.15.7-5.94,1.61-1.14.58-1.73,2.22-2.56,3.39,1.17.83,2.31,2.34,3.5,2.39,6,.24,12,.24,18,0,1.19,0,3.11-1.43,3.28-2.43s-1.23-3-2.33-3.32a37.43,37.43,0,0,0-7.45-1.13c-2-.22-4-.34-6-.51"/><path class="cls-1" d="M308,130c1.67.5,3.32,1.35,5,1.42,2.59.1,3.54,1.52,2.86,3.53-.37,1.1-2.11,1.91-3.39,2.48-.84.37-2,.07-3,.07-4.33,0-8.68.19-13-.1-1.7-.11-4.51,1.77-5-1.9-.39-2.76.76-3.92,3.51-4.05,2-.09,4-.69,6-.93,2.16-.26,4.33-.35,6.5-.52"/><path class="cls-1" d="M299.5,98A20.52,20.52,0,0,1,295,99.43c-2.68.23-3.83,1.6-3.44,4.06.41,2.69,1.65,2.76,4.49,2.25,4.85-.87,10-.48,14.95-.13,2.21.16,4.13.88,4.48-2.11.3-2.49-.78-3.88-3.47-4-3.17-.19-6.34-.62-9.5-1-.84-.1-1.67-.32-2.5-.49"/><path class="cls-1" d="M308,177a34.28,34.28,0,0,1,5.95,1.6c.93.42,2.11,2.13,1.88,2.85A4.69,4.69,0,0,1,313,183.9c-1.37.42-3,.1-4.47.1-4.17,0-8.41-.49-12.47.17-2.85.46-3.87-.2-4.55-2.66-.77-2.79,1.35-3.16,3-3.44,2.46-.43,5-.39,7.49-.58,1.84-.13,3.67-.32,5.5-.49"/><path class="cls-1" d="M193.5,407c-2.71-7.31-5.16-8.05-8.49-7.47a8.21,8.21,0,0,0-1.95,1.1c5.73,6.18,2.26,14,3.94,20.87"/><path class="cls-1" d="M473.5,930.5c-.82,5.53-4.43,8.25-12,9a19,19,0,0,1-2,0"/><path class="cls-1" d="M132.5,930.5c.19,5.18,3.78,8.28,10.5,9a34,34,0,0,0,3.5,0"/><path class="cls-1" d="M451.5,853.5v-16l5.69-4.84c-7.59-3.31-13,.43-13.14,7.32-.09,4.5.28,9,.45,13.5"/><path class="cls-1" d="M319,221.5c-2.18-3.76-7-5.69-7.21-11,0-1.06-2.68-2.55-4.32-2.88a23.32,23.32,0,0,0-7.46-.06c-2.44.29-4.08,1-4.82,4.36s-4,6.4-6.19,9.57"/><path class="cls-1" d="M437.5,702.5V685.81l5-3.81c-8.07-3.69-12.29,0-12.06,7.5.14,4.49-.27,9-.44,13.5"/><path class="cls-1" d="M429,542.5l3.46-3.85c-7-2.32-11.22,1-11,7.85.15,4.33,0,8.67,0,13"/><path class="cls-1" d="M383,1031c-1-2.69-.86-6.27-5-6.49-2.94-.15-4.78,1.33-6,4s.57,4,2,5.52"/><path class="cls-1" d="M179,544q-.25,7.75-.5,15.5"/><path class="cls-1" d="M431,546c-.83,1.67-2.14,3.26-2.39,5a58.44,58.44,0,0,0-.11,8.48"/><path class="cls-1" d="M225.5,1033.5c1,0,2-.06,3,0,2.43.17,5.39.35,5.78-2.54.22-1.67-1.36-4.29-2.9-5.28s-4.62-1-5.7,0c-1.54,1.41-3,5.69-2.49,6.06,3.42,2.55.82,6,.05,7.06-2.43,3.35-1.7,6.75-1.72,10.19-.05,9.83,0,19.67,0,29.5"/><path class="cls-1" d="M305.5,29c.67.83,1.82,1.62,1.91,2.51.25,2.64.94,5.84-.24,7.79-.67,1.11-5.27,1.12-7,0-2.65-1.71-2.32-5-.61-7.76a12.51,12.51,0,0,1,2-2"/><path class="cls-1" d="M49.5,1034.5c5.06,8.2,2.51,17.29,2.94,26,.3,6,.06,12,.06,18"/><path class="cls-1" d="M306,40.5l1.5,12"/><path class="cls-1" d="M301,40.5q-.5,6-1,12"/><path class="cls-1" d="M305,9.5c5,5.73,5,6.71,0,12"/><path class="cls-1" d="M40.5,1039H51"/><path class="cls-1" d="M555,1039h10"/><path class="cls-1" d="M224,1039h10"/><path class="cls-1" d="M218,1080.5c-.83,3.17-1.67,6.33-2.5,9.5"/><path class="cls-1" d="M299.5,88.5v9"/><path class="cls-1" d="M307.5,88.5v9"/><path class="cls-1" d="M263,408.5q-.25,6.5-.5,13"/><path class="cls-1" d="M308,121.5c-.17,2.67-.33,5.33-.5,8"/><path class="cls-1" d="M299,121.5c.17,2.67.33,5.33.5,8"/><path class="cls-1" d="M299,137.5c.17,2.67.33,5.33.5,8"/><path class="cls-1" d="M299,153.5c.17,2.67.33,5.33.5,8"/><path class="cls-1" d="M308,154c-.17,2.5-.33,5-.5,7.5"/><path class="cls-1" d="M308,138c-.17,2.5-.33,5-.5,7.5"/><path class="cls-1" d="M308,106c-.17,2.5-.33,5-.5,7.5"/><path class="cls-1" d="M308,169.5c-.17,2.33-.33,4.67-.5,7"/><path class="cls-1" d="M308,184.5c-.17,2.33-.33,4.67-.5,7"/><path class="cls-1" d="M299,184.5c.17,2.33.33,4.67.5,7"/><path class="cls-1" d="M299,106.5c.17,2.33.33,4.67.5,7"/><path class="cls-1" d="M308.5,200.5c-.17,2.17-.33,4.33-.5,6.5"/><path class="cls-1" d="M372,1038.5c1-5,1-5,8.5-5"/><path class="cls-1" d="M221,556.5V560"/></g></g></svg>